G04 #@! TF.GenerationSoftware,KiCad,Pcbnew,9.0.6*
G04 #@! TF.CreationDate,2025-12-21T20:31:47-08:00*
G04 #@! TF.ProjectId,enviroment_sensor,656e7669-726f-46d6-956e-745f73656e73,rev?*
G04 #@! TF.SameCoordinates,Original*
G04 #@! TF.FileFunction,Legend,Top*
G04 #@! TF.FilePolarity,Positive*
%FSLAX46Y46*%
G04 Gerber Fmt 4.6, Leading zero omitted, Abs format (unit mm)*
G04 Created by KiCad (PCBNEW 9.0.6) date 2025-12-21 20:31:47*
%MOMM*%
%LPD*%
G01*
G04 APERTURE LIST*
%ADD10C,0.304800*%
%ADD11C,0.150000*%
%ADD12C,0.100000*%
%ADD13C,0.120000*%
%ADD14C,0.000000*%
G04 APERTURE END LIST*
D10*
X121867192Y-114678197D02*
X121867192Y-113368673D01*
X121867192Y-113368673D02*
X121748145Y-113130578D01*
X121748145Y-113130578D02*
X121510049Y-113011530D01*
X121510049Y-113011530D02*
X121033859Y-113011530D01*
X121033859Y-113011530D02*
X120795764Y-113130578D01*
X121867192Y-114559150D02*
X121629097Y-114678197D01*
X121629097Y-114678197D02*
X121033859Y-114678197D01*
X121033859Y-114678197D02*
X120795764Y-114559150D01*
X120795764Y-114559150D02*
X120676716Y-114321054D01*
X120676716Y-114321054D02*
X120676716Y-114082959D01*
X120676716Y-114082959D02*
X120795764Y-113844864D01*
X120795764Y-113844864D02*
X121033859Y-113725816D01*
X121033859Y-113725816D02*
X121629097Y-113725816D01*
X121629097Y-113725816D02*
X121867192Y-113606769D01*
X122819573Y-113011530D02*
X123414811Y-114678197D01*
X124010050Y-113011530D02*
X123414811Y-114678197D01*
X123414811Y-114678197D02*
X123176716Y-115273435D01*
X123176716Y-115273435D02*
X123057669Y-115392483D01*
X123057669Y-115392483D02*
X122819573Y-115511530D01*
X126033859Y-113011530D02*
X126033859Y-114678197D01*
X124962431Y-113011530D02*
X124962431Y-114321054D01*
X124962431Y-114321054D02*
X125081478Y-114559150D01*
X125081478Y-114559150D02*
X125319573Y-114678197D01*
X125319573Y-114678197D02*
X125676716Y-114678197D01*
X125676716Y-114678197D02*
X125914812Y-114559150D01*
X125914812Y-114559150D02*
X126033859Y-114440102D01*
X127105288Y-114559150D02*
X127343383Y-114678197D01*
X127343383Y-114678197D02*
X127819574Y-114678197D01*
X127819574Y-114678197D02*
X128057669Y-114559150D01*
X128057669Y-114559150D02*
X128176717Y-114321054D01*
X128176717Y-114321054D02*
X128176717Y-114202007D01*
X128176717Y-114202007D02*
X128057669Y-113963911D01*
X128057669Y-113963911D02*
X127819574Y-113844864D01*
X127819574Y-113844864D02*
X127462431Y-113844864D01*
X127462431Y-113844864D02*
X127224336Y-113725816D01*
X127224336Y-113725816D02*
X127105288Y-113487721D01*
X127105288Y-113487721D02*
X127105288Y-113368673D01*
X127105288Y-113368673D02*
X127224336Y-113130578D01*
X127224336Y-113130578D02*
X127462431Y-113011530D01*
X127462431Y-113011530D02*
X127819574Y-113011530D01*
X127819574Y-113011530D02*
X128057669Y-113130578D01*
X130914812Y-113011530D02*
X131510050Y-114678197D01*
X131510050Y-114678197D02*
X132105289Y-113011530D01*
X134367193Y-114678197D02*
X132938622Y-114678197D01*
X133652908Y-114678197D02*
X133652908Y-112178197D01*
X133652908Y-112178197D02*
X133414812Y-112535340D01*
X133414812Y-112535340D02*
X133176717Y-112773435D01*
X133176717Y-112773435D02*
X132938622Y-112892483D01*
D11*
X99066667Y-109157200D02*
X99209524Y-109204819D01*
X99209524Y-109204819D02*
X99447619Y-109204819D01*
X99447619Y-109204819D02*
X99542857Y-109157200D01*
X99542857Y-109157200D02*
X99590476Y-109109580D01*
X99590476Y-109109580D02*
X99638095Y-109014342D01*
X99638095Y-109014342D02*
X99638095Y-108919104D01*
X99638095Y-108919104D02*
X99590476Y-108823866D01*
X99590476Y-108823866D02*
X99542857Y-108776247D01*
X99542857Y-108776247D02*
X99447619Y-108728628D01*
X99447619Y-108728628D02*
X99257143Y-108681009D01*
X99257143Y-108681009D02*
X99161905Y-108633390D01*
X99161905Y-108633390D02*
X99114286Y-108585771D01*
X99114286Y-108585771D02*
X99066667Y-108490533D01*
X99066667Y-108490533D02*
X99066667Y-108395295D01*
X99066667Y-108395295D02*
X99114286Y-108300057D01*
X99114286Y-108300057D02*
X99161905Y-108252438D01*
X99161905Y-108252438D02*
X99257143Y-108204819D01*
X99257143Y-108204819D02*
X99495238Y-108204819D01*
X99495238Y-108204819D02*
X99638095Y-108252438D01*
X99971429Y-108204819D02*
X100209524Y-109204819D01*
X100209524Y-109204819D02*
X100400000Y-108490533D01*
X100400000Y-108490533D02*
X100590476Y-109204819D01*
X100590476Y-109204819D02*
X100828572Y-108204819D01*
X101733333Y-109204819D02*
X101161905Y-109204819D01*
X101447619Y-109204819D02*
X101447619Y-108204819D01*
X101447619Y-108204819D02*
X101352381Y-108347676D01*
X101352381Y-108347676D02*
X101257143Y-108442914D01*
X101257143Y-108442914D02*
X101161905Y-108490533D01*
X136534819Y-58941904D02*
X137344342Y-58941904D01*
X137344342Y-58941904D02*
X137439580Y-58894285D01*
X137439580Y-58894285D02*
X137487200Y-58846666D01*
X137487200Y-58846666D02*
X137534819Y-58751428D01*
X137534819Y-58751428D02*
X137534819Y-58560952D01*
X137534819Y-58560952D02*
X137487200Y-58465714D01*
X137487200Y-58465714D02*
X137439580Y-58418095D01*
X137439580Y-58418095D02*
X137344342Y-58370476D01*
X137344342Y-58370476D02*
X136534819Y-58370476D01*
X136534819Y-57989523D02*
X136534819Y-57370476D01*
X136534819Y-57370476D02*
X136915771Y-57703809D01*
X136915771Y-57703809D02*
X136915771Y-57560952D01*
X136915771Y-57560952D02*
X136963390Y-57465714D01*
X136963390Y-57465714D02*
X137011009Y-57418095D01*
X137011009Y-57418095D02*
X137106247Y-57370476D01*
X137106247Y-57370476D02*
X137344342Y-57370476D01*
X137344342Y-57370476D02*
X137439580Y-57418095D01*
X137439580Y-57418095D02*
X137487200Y-57465714D01*
X137487200Y-57465714D02*
X137534819Y-57560952D01*
X137534819Y-57560952D02*
X137534819Y-57846666D01*
X137534819Y-57846666D02*
X137487200Y-57941904D01*
X137487200Y-57941904D02*
X137439580Y-57989523D01*
X45966666Y-36104819D02*
X45633333Y-35628628D01*
X45395238Y-36104819D02*
X45395238Y-35104819D01*
X45395238Y-35104819D02*
X45776190Y-35104819D01*
X45776190Y-35104819D02*
X45871428Y-35152438D01*
X45871428Y-35152438D02*
X45919047Y-35200057D01*
X45919047Y-35200057D02*
X45966666Y-35295295D01*
X45966666Y-35295295D02*
X45966666Y-35438152D01*
X45966666Y-35438152D02*
X45919047Y-35533390D01*
X45919047Y-35533390D02*
X45871428Y-35581009D01*
X45871428Y-35581009D02*
X45776190Y-35628628D01*
X45776190Y-35628628D02*
X45395238Y-35628628D01*
X46395238Y-35581009D02*
X46728571Y-35581009D01*
X46871428Y-36104819D02*
X46395238Y-36104819D01*
X46395238Y-36104819D02*
X46395238Y-35104819D01*
X46395238Y-35104819D02*
X46871428Y-35104819D01*
X47633333Y-35581009D02*
X47300000Y-35581009D01*
X47300000Y-36104819D02*
X47300000Y-35104819D01*
X47300000Y-35104819D02*
X47776190Y-35104819D01*
X48300000Y-35104819D02*
X48300000Y-35342914D01*
X48061905Y-35247676D02*
X48300000Y-35342914D01*
X48300000Y-35342914D02*
X48538095Y-35247676D01*
X48157143Y-35533390D02*
X48300000Y-35342914D01*
X48300000Y-35342914D02*
X48442857Y-35533390D01*
X49061905Y-35104819D02*
X49061905Y-35342914D01*
X48823810Y-35247676D02*
X49061905Y-35342914D01*
X49061905Y-35342914D02*
X49300000Y-35247676D01*
X48919048Y-35533390D02*
X49061905Y-35342914D01*
X49061905Y-35342914D02*
X49204762Y-35533390D01*
X150266666Y-112004819D02*
X149933333Y-111528628D01*
X149695238Y-112004819D02*
X149695238Y-111004819D01*
X149695238Y-111004819D02*
X150076190Y-111004819D01*
X150076190Y-111004819D02*
X150171428Y-111052438D01*
X150171428Y-111052438D02*
X150219047Y-111100057D01*
X150219047Y-111100057D02*
X150266666Y-111195295D01*
X150266666Y-111195295D02*
X150266666Y-111338152D01*
X150266666Y-111338152D02*
X150219047Y-111433390D01*
X150219047Y-111433390D02*
X150171428Y-111481009D01*
X150171428Y-111481009D02*
X150076190Y-111528628D01*
X150076190Y-111528628D02*
X149695238Y-111528628D01*
X150695238Y-111481009D02*
X151028571Y-111481009D01*
X151171428Y-112004819D02*
X150695238Y-112004819D01*
X150695238Y-112004819D02*
X150695238Y-111004819D01*
X150695238Y-111004819D02*
X151171428Y-111004819D01*
X151933333Y-111481009D02*
X151600000Y-111481009D01*
X151600000Y-112004819D02*
X151600000Y-111004819D01*
X151600000Y-111004819D02*
X152076190Y-111004819D01*
X152600000Y-111004819D02*
X152600000Y-111242914D01*
X152361905Y-111147676D02*
X152600000Y-111242914D01*
X152600000Y-111242914D02*
X152838095Y-111147676D01*
X152457143Y-111433390D02*
X152600000Y-111242914D01*
X152600000Y-111242914D02*
X152742857Y-111433390D01*
X153361905Y-111004819D02*
X153361905Y-111242914D01*
X153123810Y-111147676D02*
X153361905Y-111242914D01*
X153361905Y-111242914D02*
X153600000Y-111147676D01*
X153219048Y-111433390D02*
X153361905Y-111242914D01*
X153361905Y-111242914D02*
X153504762Y-111433390D01*
X115299104Y-46334285D02*
X115299104Y-45858095D01*
X115584819Y-46429523D02*
X114584819Y-46096190D01*
X114584819Y-46096190D02*
X115584819Y-45762857D01*
X115584819Y-44905714D02*
X115584819Y-45477142D01*
X115584819Y-45191428D02*
X114584819Y-45191428D01*
X114584819Y-45191428D02*
X114727676Y-45286666D01*
X114727676Y-45286666D02*
X114822914Y-45381904D01*
X114822914Y-45381904D02*
X114870533Y-45477142D01*
X75035180Y-44358095D02*
X74225657Y-44358095D01*
X74225657Y-44358095D02*
X74130419Y-44405714D01*
X74130419Y-44405714D02*
X74082800Y-44453333D01*
X74082800Y-44453333D02*
X74035180Y-44548571D01*
X74035180Y-44548571D02*
X74035180Y-44739047D01*
X74035180Y-44739047D02*
X74082800Y-44834285D01*
X74082800Y-44834285D02*
X74130419Y-44881904D01*
X74130419Y-44881904D02*
X74225657Y-44929523D01*
X74225657Y-44929523D02*
X75035180Y-44929523D01*
X74082800Y-45358095D02*
X74035180Y-45500952D01*
X74035180Y-45500952D02*
X74035180Y-45739047D01*
X74035180Y-45739047D02*
X74082800Y-45834285D01*
X74082800Y-45834285D02*
X74130419Y-45881904D01*
X74130419Y-45881904D02*
X74225657Y-45929523D01*
X74225657Y-45929523D02*
X74320895Y-45929523D01*
X74320895Y-45929523D02*
X74416133Y-45881904D01*
X74416133Y-45881904D02*
X74463752Y-45834285D01*
X74463752Y-45834285D02*
X74511371Y-45739047D01*
X74511371Y-45739047D02*
X74558990Y-45548571D01*
X74558990Y-45548571D02*
X74606609Y-45453333D01*
X74606609Y-45453333D02*
X74654228Y-45405714D01*
X74654228Y-45405714D02*
X74749466Y-45358095D01*
X74749466Y-45358095D02*
X74844704Y-45358095D01*
X74844704Y-45358095D02*
X74939942Y-45405714D01*
X74939942Y-45405714D02*
X74987561Y-45453333D01*
X74987561Y-45453333D02*
X75035180Y-45548571D01*
X75035180Y-45548571D02*
X75035180Y-45786666D01*
X75035180Y-45786666D02*
X74987561Y-45929523D01*
X74558990Y-46691428D02*
X74511371Y-46834285D01*
X74511371Y-46834285D02*
X74463752Y-46881904D01*
X74463752Y-46881904D02*
X74368514Y-46929523D01*
X74368514Y-46929523D02*
X74225657Y-46929523D01*
X74225657Y-46929523D02*
X74130419Y-46881904D01*
X74130419Y-46881904D02*
X74082800Y-46834285D01*
X74082800Y-46834285D02*
X74035180Y-46739047D01*
X74035180Y-46739047D02*
X74035180Y-46358095D01*
X74035180Y-46358095D02*
X75035180Y-46358095D01*
X75035180Y-46358095D02*
X75035180Y-46691428D01*
X75035180Y-46691428D02*
X74987561Y-46786666D01*
X74987561Y-46786666D02*
X74939942Y-46834285D01*
X74939942Y-46834285D02*
X74844704Y-46881904D01*
X74844704Y-46881904D02*
X74749466Y-46881904D01*
X74749466Y-46881904D02*
X74654228Y-46834285D01*
X74654228Y-46834285D02*
X74606609Y-46786666D01*
X74606609Y-46786666D02*
X74558990Y-46691428D01*
X74558990Y-46691428D02*
X74558990Y-46358095D01*
X58474819Y-93481904D02*
X59284342Y-93481904D01*
X59284342Y-93481904D02*
X59379580Y-93434285D01*
X59379580Y-93434285D02*
X59427200Y-93386666D01*
X59427200Y-93386666D02*
X59474819Y-93291428D01*
X59474819Y-93291428D02*
X59474819Y-93100952D01*
X59474819Y-93100952D02*
X59427200Y-93005714D01*
X59427200Y-93005714D02*
X59379580Y-92958095D01*
X59379580Y-92958095D02*
X59284342Y-92910476D01*
X59284342Y-92910476D02*
X58474819Y-92910476D01*
X58570057Y-92481904D02*
X58522438Y-92434285D01*
X58522438Y-92434285D02*
X58474819Y-92339047D01*
X58474819Y-92339047D02*
X58474819Y-92100952D01*
X58474819Y-92100952D02*
X58522438Y-92005714D01*
X58522438Y-92005714D02*
X58570057Y-91958095D01*
X58570057Y-91958095D02*
X58665295Y-91910476D01*
X58665295Y-91910476D02*
X58760533Y-91910476D01*
X58760533Y-91910476D02*
X58903390Y-91958095D01*
X58903390Y-91958095D02*
X59474819Y-92529523D01*
X59474819Y-92529523D02*
X59474819Y-91910476D01*
X149964819Y-103981904D02*
X150774342Y-103981904D01*
X150774342Y-103981904D02*
X150869580Y-103934285D01*
X150869580Y-103934285D02*
X150917200Y-103886666D01*
X150917200Y-103886666D02*
X150964819Y-103791428D01*
X150964819Y-103791428D02*
X150964819Y-103600952D01*
X150964819Y-103600952D02*
X150917200Y-103505714D01*
X150917200Y-103505714D02*
X150869580Y-103458095D01*
X150869580Y-103458095D02*
X150774342Y-103410476D01*
X150774342Y-103410476D02*
X149964819Y-103410476D01*
X150964819Y-102410476D02*
X150964819Y-102981904D01*
X150964819Y-102696190D02*
X149964819Y-102696190D01*
X149964819Y-102696190D02*
X150107676Y-102791428D01*
X150107676Y-102791428D02*
X150202914Y-102886666D01*
X150202914Y-102886666D02*
X150250533Y-102981904D01*
X75023333Y-111284819D02*
X74690000Y-110808628D01*
X74451905Y-111284819D02*
X74451905Y-110284819D01*
X74451905Y-110284819D02*
X74832857Y-110284819D01*
X74832857Y-110284819D02*
X74928095Y-110332438D01*
X74928095Y-110332438D02*
X74975714Y-110380057D01*
X74975714Y-110380057D02*
X75023333Y-110475295D01*
X75023333Y-110475295D02*
X75023333Y-110618152D01*
X75023333Y-110618152D02*
X74975714Y-110713390D01*
X74975714Y-110713390D02*
X74928095Y-110761009D01*
X74928095Y-110761009D02*
X74832857Y-110808628D01*
X74832857Y-110808628D02*
X74451905Y-110808628D01*
X75975714Y-111284819D02*
X75404286Y-111284819D01*
X75690000Y-111284819D02*
X75690000Y-110284819D01*
X75690000Y-110284819D02*
X75594762Y-110427676D01*
X75594762Y-110427676D02*
X75499524Y-110522914D01*
X75499524Y-110522914D02*
X75404286Y-110570533D01*
X150166666Y-35204819D02*
X149833333Y-34728628D01*
X149595238Y-35204819D02*
X149595238Y-34204819D01*
X149595238Y-34204819D02*
X149976190Y-34204819D01*
X149976190Y-34204819D02*
X150071428Y-34252438D01*
X150071428Y-34252438D02*
X150119047Y-34300057D01*
X150119047Y-34300057D02*
X150166666Y-34395295D01*
X150166666Y-34395295D02*
X150166666Y-34538152D01*
X150166666Y-34538152D02*
X150119047Y-34633390D01*
X150119047Y-34633390D02*
X150071428Y-34681009D01*
X150071428Y-34681009D02*
X149976190Y-34728628D01*
X149976190Y-34728628D02*
X149595238Y-34728628D01*
X150595238Y-34681009D02*
X150928571Y-34681009D01*
X151071428Y-35204819D02*
X150595238Y-35204819D01*
X150595238Y-35204819D02*
X150595238Y-34204819D01*
X150595238Y-34204819D02*
X151071428Y-34204819D01*
X151833333Y-34681009D02*
X151500000Y-34681009D01*
X151500000Y-35204819D02*
X151500000Y-34204819D01*
X151500000Y-34204819D02*
X151976190Y-34204819D01*
X152500000Y-34204819D02*
X152500000Y-34442914D01*
X152261905Y-34347676D02*
X152500000Y-34442914D01*
X152500000Y-34442914D02*
X152738095Y-34347676D01*
X152357143Y-34633390D02*
X152500000Y-34442914D01*
X152500000Y-34442914D02*
X152642857Y-34633390D01*
X153261905Y-34204819D02*
X153261905Y-34442914D01*
X153023810Y-34347676D02*
X153261905Y-34442914D01*
X153261905Y-34442914D02*
X153500000Y-34347676D01*
X153119048Y-34633390D02*
X153261905Y-34442914D01*
X153261905Y-34442914D02*
X153404762Y-34633390D01*
D12*
X98238095Y-76457419D02*
X98238095Y-77266942D01*
X98238095Y-77266942D02*
X98285714Y-77362180D01*
X98285714Y-77362180D02*
X98333333Y-77409800D01*
X98333333Y-77409800D02*
X98428571Y-77457419D01*
X98428571Y-77457419D02*
X98619047Y-77457419D01*
X98619047Y-77457419D02*
X98714285Y-77409800D01*
X98714285Y-77409800D02*
X98761904Y-77362180D01*
X98761904Y-77362180D02*
X98809523Y-77266942D01*
X98809523Y-77266942D02*
X98809523Y-76457419D01*
X99714285Y-76790752D02*
X99714285Y-77457419D01*
X99476190Y-76409800D02*
X99238095Y-77124085D01*
X99238095Y-77124085D02*
X99857142Y-77124085D01*
X97372419Y-67838972D02*
X98372419Y-67505639D01*
X98372419Y-67505639D02*
X97372419Y-67172306D01*
X98277180Y-66267544D02*
X98324800Y-66315163D01*
X98324800Y-66315163D02*
X98372419Y-66458020D01*
X98372419Y-66458020D02*
X98372419Y-66553258D01*
X98372419Y-66553258D02*
X98324800Y-66696115D01*
X98324800Y-66696115D02*
X98229561Y-66791353D01*
X98229561Y-66791353D02*
X98134323Y-66838972D01*
X98134323Y-66838972D02*
X97943847Y-66886591D01*
X97943847Y-66886591D02*
X97800990Y-66886591D01*
X97800990Y-66886591D02*
X97610514Y-66838972D01*
X97610514Y-66838972D02*
X97515276Y-66791353D01*
X97515276Y-66791353D02*
X97420038Y-66696115D01*
X97420038Y-66696115D02*
X97372419Y-66553258D01*
X97372419Y-66553258D02*
X97372419Y-66458020D01*
X97372419Y-66458020D02*
X97420038Y-66315163D01*
X97420038Y-66315163D02*
X97467657Y-66267544D01*
X98277180Y-65267544D02*
X98324800Y-65315163D01*
X98324800Y-65315163D02*
X98372419Y-65458020D01*
X98372419Y-65458020D02*
X98372419Y-65553258D01*
X98372419Y-65553258D02*
X98324800Y-65696115D01*
X98324800Y-65696115D02*
X98229561Y-65791353D01*
X98229561Y-65791353D02*
X98134323Y-65838972D01*
X98134323Y-65838972D02*
X97943847Y-65886591D01*
X97943847Y-65886591D02*
X97800990Y-65886591D01*
X97800990Y-65886591D02*
X97610514Y-65838972D01*
X97610514Y-65838972D02*
X97515276Y-65791353D01*
X97515276Y-65791353D02*
X97420038Y-65696115D01*
X97420038Y-65696115D02*
X97372419Y-65553258D01*
X97372419Y-65553258D02*
X97372419Y-65458020D01*
X97372419Y-65458020D02*
X97420038Y-65315163D01*
X97420038Y-65315163D02*
X97467657Y-65267544D01*
X103324800Y-67743734D02*
X103372419Y-67600877D01*
X103372419Y-67600877D02*
X103372419Y-67362782D01*
X103372419Y-67362782D02*
X103324800Y-67267544D01*
X103324800Y-67267544D02*
X103277180Y-67219925D01*
X103277180Y-67219925D02*
X103181942Y-67172306D01*
X103181942Y-67172306D02*
X103086704Y-67172306D01*
X103086704Y-67172306D02*
X102991466Y-67219925D01*
X102991466Y-67219925D02*
X102943847Y-67267544D01*
X102943847Y-67267544D02*
X102896228Y-67362782D01*
X102896228Y-67362782D02*
X102848609Y-67553258D01*
X102848609Y-67553258D02*
X102800990Y-67648496D01*
X102800990Y-67648496D02*
X102753371Y-67696115D01*
X102753371Y-67696115D02*
X102658133Y-67743734D01*
X102658133Y-67743734D02*
X102562895Y-67743734D01*
X102562895Y-67743734D02*
X102467657Y-67696115D01*
X102467657Y-67696115D02*
X102420038Y-67648496D01*
X102420038Y-67648496D02*
X102372419Y-67553258D01*
X102372419Y-67553258D02*
X102372419Y-67315163D01*
X102372419Y-67315163D02*
X102420038Y-67172306D01*
X103372419Y-66743734D02*
X102372419Y-66743734D01*
X102372419Y-66743734D02*
X102372419Y-66505639D01*
X102372419Y-66505639D02*
X102420038Y-66362782D01*
X102420038Y-66362782D02*
X102515276Y-66267544D01*
X102515276Y-66267544D02*
X102610514Y-66219925D01*
X102610514Y-66219925D02*
X102800990Y-66172306D01*
X102800990Y-66172306D02*
X102943847Y-66172306D01*
X102943847Y-66172306D02*
X103134323Y-66219925D01*
X103134323Y-66219925D02*
X103229561Y-66267544D01*
X103229561Y-66267544D02*
X103324800Y-66362782D01*
X103324800Y-66362782D02*
X103372419Y-66505639D01*
X103372419Y-66505639D02*
X103372419Y-66743734D01*
X103086704Y-65791353D02*
X103086704Y-65315163D01*
X103372419Y-65886591D02*
X102372419Y-65553258D01*
X102372419Y-65553258D02*
X103372419Y-65219925D01*
X94920038Y-67172306D02*
X94872419Y-67267544D01*
X94872419Y-67267544D02*
X94872419Y-67410401D01*
X94872419Y-67410401D02*
X94920038Y-67553258D01*
X94920038Y-67553258D02*
X95015276Y-67648496D01*
X95015276Y-67648496D02*
X95110514Y-67696115D01*
X95110514Y-67696115D02*
X95300990Y-67743734D01*
X95300990Y-67743734D02*
X95443847Y-67743734D01*
X95443847Y-67743734D02*
X95634323Y-67696115D01*
X95634323Y-67696115D02*
X95729561Y-67648496D01*
X95729561Y-67648496D02*
X95824800Y-67553258D01*
X95824800Y-67553258D02*
X95872419Y-67410401D01*
X95872419Y-67410401D02*
X95872419Y-67315163D01*
X95872419Y-67315163D02*
X95824800Y-67172306D01*
X95824800Y-67172306D02*
X95777180Y-67124687D01*
X95777180Y-67124687D02*
X95443847Y-67124687D01*
X95443847Y-67124687D02*
X95443847Y-67315163D01*
X95872419Y-66696115D02*
X94872419Y-66696115D01*
X94872419Y-66696115D02*
X95872419Y-66124687D01*
X95872419Y-66124687D02*
X94872419Y-66124687D01*
X95872419Y-65648496D02*
X94872419Y-65648496D01*
X94872419Y-65648496D02*
X94872419Y-65410401D01*
X94872419Y-65410401D02*
X94920038Y-65267544D01*
X94920038Y-65267544D02*
X95015276Y-65172306D01*
X95015276Y-65172306D02*
X95110514Y-65124687D01*
X95110514Y-65124687D02*
X95300990Y-65077068D01*
X95300990Y-65077068D02*
X95443847Y-65077068D01*
X95443847Y-65077068D02*
X95634323Y-65124687D01*
X95634323Y-65124687D02*
X95729561Y-65172306D01*
X95729561Y-65172306D02*
X95824800Y-65267544D01*
X95824800Y-65267544D02*
X95872419Y-65410401D01*
X95872419Y-65410401D02*
X95872419Y-65648496D01*
X100824800Y-67743734D02*
X100872419Y-67600877D01*
X100872419Y-67600877D02*
X100872419Y-67362782D01*
X100872419Y-67362782D02*
X100824800Y-67267544D01*
X100824800Y-67267544D02*
X100777180Y-67219925D01*
X100777180Y-67219925D02*
X100681942Y-67172306D01*
X100681942Y-67172306D02*
X100586704Y-67172306D01*
X100586704Y-67172306D02*
X100491466Y-67219925D01*
X100491466Y-67219925D02*
X100443847Y-67267544D01*
X100443847Y-67267544D02*
X100396228Y-67362782D01*
X100396228Y-67362782D02*
X100348609Y-67553258D01*
X100348609Y-67553258D02*
X100300990Y-67648496D01*
X100300990Y-67648496D02*
X100253371Y-67696115D01*
X100253371Y-67696115D02*
X100158133Y-67743734D01*
X100158133Y-67743734D02*
X100062895Y-67743734D01*
X100062895Y-67743734D02*
X99967657Y-67696115D01*
X99967657Y-67696115D02*
X99920038Y-67648496D01*
X99920038Y-67648496D02*
X99872419Y-67553258D01*
X99872419Y-67553258D02*
X99872419Y-67315163D01*
X99872419Y-67315163D02*
X99920038Y-67172306D01*
X100777180Y-66172306D02*
X100824800Y-66219925D01*
X100824800Y-66219925D02*
X100872419Y-66362782D01*
X100872419Y-66362782D02*
X100872419Y-66458020D01*
X100872419Y-66458020D02*
X100824800Y-66600877D01*
X100824800Y-66600877D02*
X100729561Y-66696115D01*
X100729561Y-66696115D02*
X100634323Y-66743734D01*
X100634323Y-66743734D02*
X100443847Y-66791353D01*
X100443847Y-66791353D02*
X100300990Y-66791353D01*
X100300990Y-66791353D02*
X100110514Y-66743734D01*
X100110514Y-66743734D02*
X100015276Y-66696115D01*
X100015276Y-66696115D02*
X99920038Y-66600877D01*
X99920038Y-66600877D02*
X99872419Y-66458020D01*
X99872419Y-66458020D02*
X99872419Y-66362782D01*
X99872419Y-66362782D02*
X99920038Y-66219925D01*
X99920038Y-66219925D02*
X99967657Y-66172306D01*
X100872419Y-65267544D02*
X100872419Y-65743734D01*
X100872419Y-65743734D02*
X99872419Y-65743734D01*
D11*
X45166666Y-112404819D02*
X44833333Y-111928628D01*
X44595238Y-112404819D02*
X44595238Y-111404819D01*
X44595238Y-111404819D02*
X44976190Y-111404819D01*
X44976190Y-111404819D02*
X45071428Y-111452438D01*
X45071428Y-111452438D02*
X45119047Y-111500057D01*
X45119047Y-111500057D02*
X45166666Y-111595295D01*
X45166666Y-111595295D02*
X45166666Y-111738152D01*
X45166666Y-111738152D02*
X45119047Y-111833390D01*
X45119047Y-111833390D02*
X45071428Y-111881009D01*
X45071428Y-111881009D02*
X44976190Y-111928628D01*
X44976190Y-111928628D02*
X44595238Y-111928628D01*
X45595238Y-111881009D02*
X45928571Y-111881009D01*
X46071428Y-112404819D02*
X45595238Y-112404819D01*
X45595238Y-112404819D02*
X45595238Y-111404819D01*
X45595238Y-111404819D02*
X46071428Y-111404819D01*
X46833333Y-111881009D02*
X46500000Y-111881009D01*
X46500000Y-112404819D02*
X46500000Y-111404819D01*
X46500000Y-111404819D02*
X46976190Y-111404819D01*
X47500000Y-111404819D02*
X47500000Y-111642914D01*
X47261905Y-111547676D02*
X47500000Y-111642914D01*
X47500000Y-111642914D02*
X47738095Y-111547676D01*
X47357143Y-111833390D02*
X47500000Y-111642914D01*
X47500000Y-111642914D02*
X47642857Y-111833390D01*
X48261905Y-111404819D02*
X48261905Y-111642914D01*
X48023810Y-111547676D02*
X48261905Y-111642914D01*
X48261905Y-111642914D02*
X48500000Y-111547676D01*
X48119048Y-111833390D02*
X48261905Y-111642914D01*
X48261905Y-111642914D02*
X48404762Y-111833390D01*
D13*
X96900000Y-112250000D02*
X96900000Y-113750000D01*
X98150000Y-116250000D02*
X102650000Y-116250000D01*
X102650000Y-109750000D02*
X98150000Y-109750000D01*
X103900000Y-113750000D02*
X103900000Y-112250000D01*
X138520000Y-52690000D02*
X139850000Y-52690000D01*
X138520000Y-53800000D02*
X138520000Y-52690000D01*
X138520000Y-55260000D02*
X148800000Y-55260000D01*
X138520000Y-63890000D02*
X138520000Y-55260000D01*
X138520000Y-63890000D02*
X148800000Y-63890000D01*
X138640000Y-63890000D02*
X138640000Y-55260000D01*
X138758095Y-63890000D02*
X138758095Y-55260000D01*
X138876190Y-63890000D02*
X138876190Y-55260000D01*
X138994285Y-63890000D02*
X138994285Y-55260000D01*
X139112380Y-63890000D02*
X139112380Y-55260000D01*
X139230475Y-63890000D02*
X139230475Y-55260000D01*
X139348570Y-63890000D02*
X139348570Y-55260000D01*
X139466665Y-63890000D02*
X139466665Y-55260000D01*
X139490000Y-55260000D02*
X139490000Y-54910000D01*
X139584760Y-63890000D02*
X139584760Y-55260000D01*
X139702855Y-63890000D02*
X139702855Y-55260000D01*
X139820950Y-63890000D02*
X139820950Y-55260000D01*
X139939045Y-63890000D02*
X139939045Y-55260000D01*
X140057140Y-63890000D02*
X140057140Y-55260000D01*
X140175235Y-63890000D02*
X140175235Y-55260000D01*
X140210000Y-55260000D02*
X140210000Y-54910000D01*
X140293330Y-63890000D02*
X140293330Y-55260000D01*
X140411425Y-63890000D02*
X140411425Y-55260000D01*
X140529520Y-63890000D02*
X140529520Y-55260000D01*
X140647615Y-63890000D02*
X140647615Y-55260000D01*
X140765710Y-63890000D02*
X140765710Y-55260000D01*
X140883805Y-63890000D02*
X140883805Y-55260000D01*
X141001900Y-63890000D02*
X141001900Y-55260000D01*
X141120000Y-63890000D02*
X141120000Y-55260000D01*
X142030000Y-55260000D02*
X142030000Y-54850000D01*
X142750000Y-55260000D02*
X142750000Y-54850000D01*
X143660000Y-63890000D02*
X143660000Y-55260000D01*
X144570000Y-55260000D02*
X144570000Y-54850000D01*
X145290000Y-55260000D02*
X145290000Y-54850000D01*
X146200000Y-63890000D02*
X146200000Y-55260000D01*
X147110000Y-55260000D02*
X147110000Y-54850000D01*
X147830000Y-55260000D02*
X147830000Y-54850000D01*
X148800000Y-63890000D02*
X148800000Y-55260000D01*
X68010000Y-41680000D02*
X78430000Y-41680000D01*
X68010000Y-49560000D02*
X68010000Y-41680000D01*
X70550000Y-36600000D02*
X70550000Y-41680000D01*
X70550000Y-54640000D02*
X70550000Y-49560000D01*
X70550000Y-54640000D02*
X113990000Y-54640000D01*
X73220000Y-39270000D02*
X73220000Y-36600000D01*
X73220000Y-51970000D02*
X73220000Y-54640000D01*
X78430000Y-41680000D02*
X78430000Y-49560000D01*
X78430000Y-49560000D02*
X68010000Y-49560000D01*
X108780000Y-36600000D02*
X70550000Y-36600000D01*
X108780000Y-39270000D02*
X73220000Y-39270000D01*
X108780000Y-39270000D02*
X108780000Y-36600000D01*
X108780000Y-39270000D02*
X111320000Y-39270000D01*
X111320000Y-39270000D02*
X111320000Y-36600000D01*
X111320000Y-51970000D02*
X73220000Y-51970000D01*
X111320000Y-51970000D02*
X111320000Y-54640000D01*
X113990000Y-36600000D02*
X111320000Y-36600000D01*
X113990000Y-54640000D02*
X113990000Y-36600000D01*
X47300000Y-87010000D02*
X47300000Y-95640000D01*
X48270000Y-95640000D02*
X48270000Y-96050000D01*
X48990000Y-95640000D02*
X48990000Y-96050000D01*
X49900000Y-87010000D02*
X49900000Y-95640000D01*
X50810000Y-95640000D02*
X50810000Y-96050000D01*
X51530000Y-95640000D02*
X51530000Y-96050000D01*
X52440000Y-87010000D02*
X52440000Y-95640000D01*
X53350000Y-95640000D02*
X53350000Y-96050000D01*
X54070000Y-95640000D02*
X54070000Y-96050000D01*
X54980000Y-87010000D02*
X54980000Y-95640000D01*
X55098100Y-87010000D02*
X55098100Y-95640000D01*
X55216195Y-87010000D02*
X55216195Y-95640000D01*
X55334290Y-87010000D02*
X55334290Y-95640000D01*
X55452385Y-87010000D02*
X55452385Y-95640000D01*
X55570480Y-87010000D02*
X55570480Y-95640000D01*
X55688575Y-87010000D02*
X55688575Y-95640000D01*
X55806670Y-87010000D02*
X55806670Y-95640000D01*
X55890000Y-95640000D02*
X55890000Y-95990000D01*
X55924765Y-87010000D02*
X55924765Y-95640000D01*
X56042860Y-87010000D02*
X56042860Y-95640000D01*
X56160955Y-87010000D02*
X56160955Y-95640000D01*
X56279050Y-87010000D02*
X56279050Y-95640000D01*
X56397145Y-87010000D02*
X56397145Y-95640000D01*
X56515240Y-87010000D02*
X56515240Y-95640000D01*
X56610000Y-95640000D02*
X56610000Y-95990000D01*
X56633335Y-87010000D02*
X56633335Y-95640000D01*
X56751430Y-87010000D02*
X56751430Y-95640000D01*
X56869525Y-87010000D02*
X56869525Y-95640000D01*
X56987620Y-87010000D02*
X56987620Y-95640000D01*
X57105715Y-87010000D02*
X57105715Y-95640000D01*
X57223810Y-87010000D02*
X57223810Y-95640000D01*
X57341905Y-87010000D02*
X57341905Y-95640000D01*
X57460000Y-87010000D02*
X57460000Y-95640000D01*
X57580000Y-87010000D02*
X47300000Y-87010000D01*
X57580000Y-87010000D02*
X57580000Y-95640000D01*
X57580000Y-95640000D02*
X47300000Y-95640000D01*
X57580000Y-97100000D02*
X57580000Y-98210000D01*
X57580000Y-98210000D02*
X56250000Y-98210000D01*
D14*
G36*
X113292017Y-114281982D02*
G01*
X113396001Y-114282847D01*
X113489343Y-114284565D01*
X113566367Y-114287151D01*
X113621401Y-114290617D01*
X113648769Y-114294977D01*
X113650763Y-114296662D01*
X113646629Y-114303448D01*
X113633215Y-114317359D01*
X113609008Y-114339647D01*
X113572495Y-114371567D01*
X113522162Y-114414373D01*
X113456493Y-114469318D01*
X113373977Y-114537655D01*
X113273098Y-114620639D01*
X113152343Y-114719524D01*
X113010199Y-114835563D01*
X112845150Y-114970009D01*
X112655683Y-115124118D01*
X112440640Y-115298854D01*
X112325441Y-115392345D01*
X112201116Y-115493109D01*
X112076017Y-115594383D01*
X111958496Y-115689408D01*
X111856908Y-115771422D01*
X111825138Y-115797029D01*
X111560555Y-116010170D01*
X111041090Y-116010293D01*
X110910792Y-116009846D01*
X110793574Y-116008524D01*
X110693602Y-116006447D01*
X110615041Y-116003736D01*
X110562059Y-116000514D01*
X110538821Y-115996901D01*
X110538381Y-115995651D01*
X110556223Y-115981727D01*
X110598712Y-115949377D01*
X110662249Y-115901315D01*
X110743240Y-115840253D01*
X110838088Y-115768907D01*
X110943196Y-115689990D01*
X110987291Y-115656923D01*
X111124322Y-115553761D01*
X111279414Y-115436270D01*
X111442844Y-115311864D01*
X111604890Y-115187953D01*
X111755831Y-115071952D01*
X111851597Y-114997937D01*
X111972437Y-114904266D01*
X112096510Y-114808105D01*
X112217699Y-114714196D01*
X112329884Y-114627278D01*
X112426946Y-114552093D01*
X112502769Y-114493381D01*
X112508032Y-114489306D01*
X112584732Y-114429409D01*
X112651480Y-114376288D01*
X112703291Y-114333987D01*
X112735185Y-114306552D01*
X112742789Y-114298751D01*
X112762387Y-114294002D01*
X112811064Y-114290016D01*
X112883145Y-114286805D01*
X112972955Y-114284384D01*
X113074820Y-114282764D01*
X113183065Y-114281959D01*
X113292017Y-114281982D01*
G37*
G36*
X115066093Y-109396219D02*
G01*
X115197625Y-109397317D01*
X115313320Y-109399037D01*
X115409183Y-109401286D01*
X115481214Y-109403975D01*
X115525417Y-109407012D01*
X115538125Y-109409842D01*
X115525751Y-109426260D01*
X115491890Y-109461274D01*
X115441431Y-109510055D01*
X115379264Y-109567773D01*
X115366145Y-109579702D01*
X115280944Y-109657730D01*
X115185760Y-109746199D01*
X115093830Y-109832747D01*
X115035416Y-109888541D01*
X114941792Y-109978251D01*
X114823768Y-110090465D01*
X114682859Y-110223757D01*
X114520584Y-110376698D01*
X114338460Y-110547860D01*
X114138003Y-110735816D01*
X113920731Y-110939138D01*
X113694419Y-111150556D01*
X113527637Y-111306345D01*
X113385042Y-111439797D01*
X113264938Y-111552547D01*
X113165628Y-111646226D01*
X113085414Y-111722469D01*
X113022601Y-111782908D01*
X112975490Y-111829177D01*
X112942387Y-111862908D01*
X112921593Y-111885735D01*
X112911412Y-111899292D01*
X112910147Y-111905210D01*
X112910254Y-111905309D01*
X112925335Y-111917670D01*
X112964746Y-111949938D01*
X113025513Y-111999680D01*
X113104664Y-112064462D01*
X113199226Y-112141852D01*
X113306226Y-112229416D01*
X113422691Y-112324721D01*
X113456736Y-112352579D01*
X113677616Y-112533381D01*
X113872683Y-112693201D01*
X114043480Y-112833334D01*
X114191548Y-112955074D01*
X114318428Y-113059715D01*
X114425664Y-113148552D01*
X114514797Y-113222880D01*
X114587368Y-113283993D01*
X114644921Y-113333186D01*
X114688996Y-113371753D01*
X114721136Y-113400989D01*
X114742882Y-113422188D01*
X114755777Y-113436644D01*
X114761362Y-113445654D01*
X114761902Y-113448321D01*
X114747114Y-113465440D01*
X114708069Y-113493216D01*
X114652484Y-113527399D01*
X114588077Y-113563741D01*
X114522564Y-113597993D01*
X114463664Y-113625906D01*
X114419093Y-113643232D01*
X114401382Y-113646805D01*
X114377109Y-113635263D01*
X114327469Y-113600569D01*
X114252338Y-113542625D01*
X114151592Y-113461330D01*
X114025106Y-113356584D01*
X113872756Y-113228286D01*
X113719569Y-113097853D01*
X113579910Y-112978463D01*
X113439432Y-112858399D01*
X113302268Y-112741193D01*
X113172553Y-112630376D01*
X113054420Y-112529479D01*
X112952003Y-112442034D01*
X112869435Y-112371570D01*
X112826519Y-112334972D01*
X112575538Y-112121041D01*
X112575165Y-111615742D01*
X112574791Y-111110443D01*
X113441058Y-110253138D01*
X114307325Y-109395832D01*
X114922725Y-109395832D01*
X115066093Y-109396219D01*
G37*
G36*
X117335149Y-109290979D02*
G01*
X117473078Y-109291791D01*
X117585095Y-109293151D01*
X117674321Y-109295150D01*
X117743877Y-109297879D01*
X117796885Y-109301428D01*
X117836466Y-109305889D01*
X117865742Y-109311353D01*
X117886289Y-109317354D01*
X117923686Y-109329830D01*
X117989459Y-109350947D01*
X118078251Y-109379020D01*
X118184705Y-109412363D01*
X118303464Y-109449292D01*
X118422083Y-109485938D01*
X118648310Y-109555744D01*
X118842971Y-109616156D01*
X119008283Y-109667927D01*
X119146466Y-109711813D01*
X119259739Y-109748567D01*
X119350321Y-109778943D01*
X119420432Y-109803697D01*
X119472291Y-109823582D01*
X119508116Y-109839352D01*
X119530127Y-109851762D01*
X119540544Y-109861566D01*
X119542152Y-109866639D01*
X119534104Y-109894026D01*
X119512563Y-109943473D01*
X119481431Y-110006350D01*
X119464717Y-110037863D01*
X119417882Y-110125280D01*
X119366128Y-110223391D01*
X119319790Y-110312585D01*
X119315025Y-110321874D01*
X119281153Y-110387368D01*
X119252265Y-110442033D01*
X119232891Y-110477343D01*
X119228677Y-110484358D01*
X119207262Y-110495084D01*
X119157783Y-110510582D01*
X119086889Y-110529340D01*
X119001229Y-110549846D01*
X118907453Y-110570589D01*
X118812211Y-110590056D01*
X118722151Y-110606736D01*
X118643924Y-110619118D01*
X118624930Y-110621623D01*
X118589997Y-110626676D01*
X118557798Y-110634044D01*
X118524607Y-110646030D01*
X118486694Y-110664940D01*
X118440332Y-110693079D01*
X118381793Y-110732753D01*
X118307348Y-110786266D01*
X118213270Y-110855925D01*
X118095829Y-110944033D01*
X118060486Y-110970642D01*
X117947635Y-111054732D01*
X117860274Y-111117709D01*
X117796569Y-111160775D01*
X117754686Y-111185133D01*
X117732793Y-111191984D01*
X117728518Y-111188346D01*
X117732752Y-111161823D01*
X117748451Y-111110312D01*
X117773133Y-111041224D01*
X117804313Y-110961975D01*
X117804479Y-110961571D01*
X117836980Y-110881942D01*
X117864992Y-110812407D01*
X117885507Y-110760491D01*
X117895484Y-110733831D01*
X117895709Y-110725409D01*
X117887872Y-110718765D01*
X117868324Y-110713681D01*
X117833418Y-110709938D01*
X117779502Y-110707316D01*
X117702930Y-110705598D01*
X117600052Y-110704564D01*
X117467218Y-110703996D01*
X117395268Y-110703831D01*
X117245767Y-110703369D01*
X117127134Y-110702452D01*
X117034957Y-110700816D01*
X116964826Y-110698196D01*
X116912331Y-110694329D01*
X116873062Y-110688951D01*
X116842609Y-110681798D01*
X116816560Y-110672607D01*
X116807202Y-110668657D01*
X116718968Y-110615873D01*
X116643741Y-110538275D01*
X116577447Y-110431361D01*
X116559875Y-110395441D01*
X116503629Y-110274980D01*
X116430981Y-110344839D01*
X116396606Y-110376502D01*
X116338195Y-110428669D01*
X116258536Y-110498927D01*
X116160413Y-110584864D01*
X116046612Y-110684067D01*
X115919918Y-110794122D01*
X115783119Y-110912618D01*
X115638998Y-111037141D01*
X115490342Y-111165278D01*
X115339937Y-111294617D01*
X115190568Y-111422745D01*
X115045021Y-111547250D01*
X114906081Y-111665718D01*
X114899581Y-111671249D01*
X114819224Y-111740122D01*
X114748909Y-111801335D01*
X114692779Y-111851206D01*
X114654975Y-111886050D01*
X114639638Y-111902183D01*
X114639501Y-111902591D01*
X114652268Y-111916826D01*
X114687939Y-111948299D01*
X114741456Y-111992737D01*
X114807762Y-112045870D01*
X114827442Y-112061341D01*
X114888232Y-112109284D01*
X114973004Y-112176656D01*
X115078317Y-112260691D01*
X115200731Y-112358624D01*
X115336806Y-112467693D01*
X115483100Y-112585131D01*
X115636175Y-112708174D01*
X115792588Y-112834057D01*
X115948899Y-112960016D01*
X116101669Y-113083287D01*
X116247455Y-113201103D01*
X116382819Y-113310702D01*
X116444652Y-113360854D01*
X116617412Y-113501114D01*
X116764682Y-113620788D01*
X116888401Y-113721476D01*
X116990510Y-113804777D01*
X117072949Y-113872288D01*
X117137656Y-113925610D01*
X117186573Y-113966340D01*
X117221637Y-113996078D01*
X117244790Y-114016422D01*
X117257971Y-114028972D01*
X117263119Y-114035326D01*
X117263226Y-114035573D01*
X117256498Y-114046568D01*
X117231437Y-114070241D01*
X117186644Y-114107678D01*
X117120722Y-114159966D01*
X117032272Y-114228192D01*
X116919897Y-114313443D01*
X116782197Y-114416804D01*
X116617776Y-114539363D01*
X116555175Y-114585868D01*
X116252500Y-114810557D01*
X115230603Y-114810764D01*
X115014681Y-114810849D01*
X114831167Y-114811069D01*
X114677191Y-114811519D01*
X114549882Y-114812288D01*
X114446370Y-114813470D01*
X114363786Y-114815157D01*
X114299259Y-114817440D01*
X114249920Y-114820412D01*
X114212897Y-114824165D01*
X114185322Y-114828792D01*
X114164324Y-114834383D01*
X114147033Y-114841032D01*
X114136607Y-114845874D01*
X114062477Y-114898706D01*
X114017480Y-114969919D01*
X114003541Y-115049735D01*
X114019902Y-115115192D01*
X114063923Y-115174462D01*
X114128015Y-115219985D01*
X114197730Y-115243151D01*
X114238426Y-115247014D01*
X114278055Y-115241731D01*
X114326713Y-115224594D01*
X114394496Y-115192896D01*
X114405459Y-115187455D01*
X114541527Y-115119652D01*
X115423472Y-115110832D01*
X116305416Y-115102013D01*
X116728750Y-114793732D01*
X116854501Y-114701948D01*
X116987622Y-114604417D01*
X117120691Y-114506603D01*
X117246282Y-114413971D01*
X117356973Y-114331985D01*
X117433063Y-114275301D01*
X117714043Y-114065150D01*
X117652011Y-114010318D01*
X117621192Y-113983903D01*
X117567677Y-113938923D01*
X117496041Y-113879187D01*
X117410862Y-113808505D01*
X117316718Y-113730685D01*
X117247559Y-113673697D01*
X117129978Y-113576862D01*
X116999728Y-113469470D01*
X116866254Y-113359316D01*
X116739003Y-113254198D01*
X116627421Y-113161911D01*
X116605277Y-113143577D01*
X116517764Y-113071254D01*
X116408791Y-112981434D01*
X116283371Y-112878230D01*
X116146515Y-112765753D01*
X116003238Y-112648118D01*
X115858552Y-112529435D01*
X115717470Y-112413818D01*
X115585005Y-112305379D01*
X115466169Y-112208230D01*
X115365976Y-112126484D01*
X115308819Y-112079981D01*
X115260004Y-112039053D01*
X115223349Y-112005917D01*
X115206406Y-111987417D01*
X115206193Y-111986952D01*
X115212035Y-111962732D01*
X115235205Y-111921385D01*
X115269133Y-111871733D01*
X115307246Y-111822598D01*
X115342974Y-111782800D01*
X115369745Y-111761162D01*
X115375622Y-111759509D01*
X115409424Y-111768401D01*
X115455582Y-111790384D01*
X115467569Y-111797409D01*
X115495408Y-111814009D01*
X115551320Y-111846939D01*
X115632883Y-111894788D01*
X115737678Y-111956144D01*
X115863283Y-112029597D01*
X116007280Y-112113736D01*
X116167247Y-112207149D01*
X116340764Y-112308427D01*
X116525410Y-112416157D01*
X116718766Y-112528929D01*
X116918411Y-112645331D01*
X117121925Y-112763953D01*
X117326887Y-112883384D01*
X117530877Y-113002212D01*
X117731475Y-113119027D01*
X117926261Y-113232418D01*
X118112813Y-113340973D01*
X118288712Y-113443282D01*
X118451538Y-113537934D01*
X118598870Y-113623517D01*
X118728287Y-113698620D01*
X118808011Y-113744831D01*
X118949977Y-113827461D01*
X119083964Y-113906198D01*
X119206550Y-113978976D01*
X119314313Y-114043732D01*
X119403833Y-114098400D01*
X119471688Y-114140915D01*
X119514457Y-114169213D01*
X119526796Y-114178638D01*
X119577430Y-114225403D01*
X119577430Y-114463907D01*
X119577430Y-114702410D01*
X119484826Y-114780725D01*
X119430442Y-114825311D01*
X119350453Y-114888880D01*
X119247556Y-114969356D01*
X119124449Y-115064665D01*
X118983831Y-115172734D01*
X118828401Y-115291487D01*
X118660857Y-115418850D01*
X118483897Y-115552749D01*
X118316387Y-115678955D01*
X117875553Y-116010416D01*
X114934131Y-116010416D01*
X114614899Y-116010338D01*
X114305344Y-116010109D01*
X114007292Y-116009739D01*
X113722572Y-116009234D01*
X113453012Y-116008604D01*
X113200440Y-116007856D01*
X112966684Y-116006999D01*
X112753573Y-116006041D01*
X112562934Y-116004989D01*
X112396596Y-116003854D01*
X112256387Y-116002641D01*
X112144135Y-116001361D01*
X112061667Y-116000021D01*
X112010813Y-115998629D01*
X111993401Y-115997193D01*
X111993401Y-115997187D01*
X112006784Y-115982607D01*
X112043663Y-115949794D01*
X112099804Y-115902322D01*
X112170972Y-115843764D01*
X112252933Y-115777695D01*
X112262394Y-115770148D01*
X112355856Y-115695405D01*
X112470064Y-115603596D01*
X112605884Y-115494021D01*
X112764183Y-115365975D01*
X112945829Y-115218757D01*
X113151688Y-115051665D01*
X113382627Y-114863996D01*
X113639514Y-114655047D01*
X113789999Y-114532571D01*
X114043888Y-114325902D01*
X114938079Y-114317082D01*
X115832270Y-114308263D01*
X115932142Y-114241937D01*
X115982393Y-114206286D01*
X116018263Y-114176489D01*
X116032013Y-114158979D01*
X116032013Y-114158945D01*
X116023968Y-114148995D01*
X115999301Y-114125480D01*
X115957217Y-114087731D01*
X115896923Y-114035075D01*
X115817623Y-113966841D01*
X115718522Y-113882357D01*
X115598825Y-113780953D01*
X115457738Y-113661957D01*
X115294466Y-113524698D01*
X115108214Y-113368505D01*
X114898187Y-113192705D01*
X114663590Y-112996628D01*
X114403628Y-112779602D01*
X114117507Y-112540957D01*
X114030000Y-112468005D01*
X113894282Y-112354694D01*
X113766950Y-112248037D01*
X113650549Y-112150190D01*
X113547622Y-112063307D01*
X113460712Y-111989544D01*
X113392364Y-111931055D01*
X113345122Y-111889995D01*
X113321529Y-111868519D01*
X113319301Y-111865963D01*
X113330213Y-111850437D01*
X113363654Y-111815424D01*
X113415681Y-111764753D01*
X113482351Y-111702258D01*
X113559721Y-111631769D01*
X113567310Y-111624953D01*
X113643817Y-111555928D01*
X113740680Y-111467928D01*
X113852403Y-111365983D01*
X113973487Y-111255121D01*
X114098437Y-111140370D01*
X114221754Y-111026760D01*
X114278316Y-110974513D01*
X114412284Y-110850951D01*
X114562398Y-110713015D01*
X114720482Y-110568186D01*
X114878358Y-110423943D01*
X115027848Y-110287766D01*
X115116605Y-110207221D01*
X117371414Y-110207221D01*
X117552790Y-110207123D01*
X117637285Y-110205300D01*
X117715730Y-110200484D01*
X117776774Y-110193513D01*
X117799552Y-110188865D01*
X117868329Y-110153751D01*
X117914404Y-110097995D01*
X117935197Y-110029932D01*
X117928129Y-109957895D01*
X117891616Y-109891393D01*
X117847269Y-109850807D01*
X117790609Y-109823715D01*
X117715405Y-109808543D01*
X117615423Y-109803717D01*
X117548958Y-109804857D01*
X117381388Y-109810346D01*
X117376401Y-110008784D01*
X117371414Y-110207221D01*
X115116605Y-110207221D01*
X115160776Y-110167137D01*
X115176835Y-110152606D01*
X115296766Y-110044129D01*
X115421589Y-109931224D01*
X115545438Y-109819198D01*
X115662446Y-109713358D01*
X115766746Y-109619010D01*
X115852472Y-109541461D01*
X115873263Y-109522652D01*
X116129027Y-109291272D01*
X116969067Y-109290635D01*
X117168185Y-109290624D01*
X117335149Y-109290979D01*
G37*
D13*
X140630000Y-96010000D02*
X140630000Y-104640000D01*
X141600000Y-104640000D02*
X141600000Y-105050000D01*
X142320000Y-104640000D02*
X142320000Y-105050000D01*
X143230000Y-96010000D02*
X143230000Y-104640000D01*
X144140000Y-104640000D02*
X144140000Y-105050000D01*
X144860000Y-104640000D02*
X144860000Y-105050000D01*
X145770000Y-96010000D02*
X145770000Y-104640000D01*
X145888100Y-96010000D02*
X145888100Y-104640000D01*
X146006195Y-96010000D02*
X146006195Y-104640000D01*
X146124290Y-96010000D02*
X146124290Y-104640000D01*
X146242385Y-96010000D02*
X146242385Y-104640000D01*
X146360480Y-96010000D02*
X146360480Y-104640000D01*
X146478575Y-96010000D02*
X146478575Y-104640000D01*
X146596670Y-96010000D02*
X146596670Y-104640000D01*
X146680000Y-104640000D02*
X146680000Y-104990000D01*
X146714765Y-96010000D02*
X146714765Y-104640000D01*
X146832860Y-96010000D02*
X146832860Y-104640000D01*
X146950955Y-96010000D02*
X146950955Y-104640000D01*
X147069050Y-96010000D02*
X147069050Y-104640000D01*
X147187145Y-96010000D02*
X147187145Y-104640000D01*
X147305240Y-96010000D02*
X147305240Y-104640000D01*
X147400000Y-104640000D02*
X147400000Y-104990000D01*
X147423335Y-96010000D02*
X147423335Y-104640000D01*
X147541430Y-96010000D02*
X147541430Y-104640000D01*
X147659525Y-96010000D02*
X147659525Y-104640000D01*
X147777620Y-96010000D02*
X147777620Y-104640000D01*
X147895715Y-96010000D02*
X147895715Y-104640000D01*
X148013810Y-96010000D02*
X148013810Y-104640000D01*
X148131905Y-96010000D02*
X148131905Y-104640000D01*
X148250000Y-96010000D02*
X148250000Y-104640000D01*
X148370000Y-96010000D02*
X140630000Y-96010000D01*
X148370000Y-96010000D02*
X148370000Y-104640000D01*
X148370000Y-104640000D02*
X140630000Y-104640000D01*
X148370000Y-106100000D02*
X148370000Y-107210000D01*
X148370000Y-107210000D02*
X147040000Y-107210000D01*
X71920000Y-111830000D02*
X78460000Y-111830000D01*
X71920000Y-112160000D02*
X71920000Y-111830000D01*
X71920000Y-114240000D02*
X71920000Y-114570000D01*
X71920000Y-114570000D02*
X78460000Y-114570000D01*
X78460000Y-111830000D02*
X78460000Y-112160000D01*
X78460000Y-114570000D02*
X78460000Y-114240000D01*
D12*
X68250000Y-60250000D02*
X129750000Y-60250000D01*
X68250000Y-99750000D02*
X68250000Y-60250000D01*
X129750000Y-60250000D02*
X129750000Y-99750000D01*
X129750000Y-99750000D02*
X68250000Y-99750000D01*
%LPC*%
G36*
X46873513Y-114544208D02*
G01*
X47112293Y-114621793D01*
X47335998Y-114735776D01*
X47539117Y-114883350D01*
X47716650Y-115060883D01*
X47864224Y-115264002D01*
X47978207Y-115487707D01*
X48055792Y-115726487D01*
X48095068Y-115974465D01*
X48095068Y-116225535D01*
X48055792Y-116473513D01*
X47978207Y-116712293D01*
X47864224Y-116935998D01*
X47716650Y-117139117D01*
X47539117Y-117316650D01*
X47335998Y-117464224D01*
X47112293Y-117578207D01*
X46873513Y-117655792D01*
X46625535Y-117695068D01*
X46374465Y-117695068D01*
X46126487Y-117655792D01*
X45887707Y-117578207D01*
X45664002Y-117464224D01*
X45460883Y-117316650D01*
X45283350Y-117139117D01*
X45135776Y-116935998D01*
X45021793Y-116712293D01*
X44944208Y-116473513D01*
X44904932Y-116225535D01*
X44904932Y-115974465D01*
X44944208Y-115726487D01*
X45021793Y-115487707D01*
X45135776Y-115264002D01*
X45283350Y-115060883D01*
X45460883Y-114883350D01*
X45664002Y-114735776D01*
X45887707Y-114621793D01*
X46126487Y-114544208D01*
X46374465Y-114504932D01*
X46625535Y-114504932D01*
X46873513Y-114544208D01*
G37*
G36*
X151973513Y-114144208D02*
G01*
X152212293Y-114221793D01*
X152435998Y-114335776D01*
X152639117Y-114483350D01*
X152816650Y-114660883D01*
X152964224Y-114864002D01*
X153078207Y-115087707D01*
X153155792Y-115326487D01*
X153195068Y-115574465D01*
X153195068Y-115825535D01*
X153155792Y-116073513D01*
X153078207Y-116312293D01*
X152964224Y-116535998D01*
X152816650Y-116739117D01*
X152639117Y-116916650D01*
X152435998Y-117064224D01*
X152212293Y-117178207D01*
X151973513Y-117255792D01*
X151725535Y-117295068D01*
X151474465Y-117295068D01*
X151226487Y-117255792D01*
X150987707Y-117178207D01*
X150764002Y-117064224D01*
X150560883Y-116916650D01*
X150383350Y-116739117D01*
X150235776Y-116535998D01*
X150121793Y-116312293D01*
X150044208Y-116073513D01*
X150004932Y-115825535D01*
X150004932Y-115574465D01*
X150044208Y-115326487D01*
X150121793Y-115087707D01*
X150235776Y-114864002D01*
X150383350Y-114660883D01*
X150560883Y-114483350D01*
X150764002Y-114335776D01*
X150987707Y-114221793D01*
X151226487Y-114144208D01*
X151474465Y-114104932D01*
X151725535Y-114104932D01*
X151973513Y-114144208D01*
G37*
G36*
X97440285Y-114293060D02*
G01*
X97621397Y-114368079D01*
X97784393Y-114476990D01*
X97923010Y-114615607D01*
X98031921Y-114778603D01*
X98106940Y-114959715D01*
X98145185Y-115151983D01*
X98145185Y-115348017D01*
X98106940Y-115540285D01*
X98031921Y-115721397D01*
X97923010Y-115884393D01*
X97784393Y-116023010D01*
X97621397Y-116131921D01*
X97440285Y-116206940D01*
X97248017Y-116245185D01*
X97051983Y-116245185D01*
X96859715Y-116206940D01*
X96678603Y-116131921D01*
X96515607Y-116023010D01*
X96376990Y-115884393D01*
X96268079Y-115721397D01*
X96193060Y-115540285D01*
X96154815Y-115348017D01*
X96154815Y-115151983D01*
X96193060Y-114959715D01*
X96268079Y-114778603D01*
X96376990Y-114615607D01*
X96515607Y-114476990D01*
X96678603Y-114368079D01*
X96859715Y-114293060D01*
X97051983Y-114254815D01*
X97248017Y-114254815D01*
X97440285Y-114293060D01*
G37*
G36*
X103940285Y-114293060D02*
G01*
X104121397Y-114368079D01*
X104284393Y-114476990D01*
X104423010Y-114615607D01*
X104531921Y-114778603D01*
X104606940Y-114959715D01*
X104645185Y-115151983D01*
X104645185Y-115348017D01*
X104606940Y-115540285D01*
X104531921Y-115721397D01*
X104423010Y-115884393D01*
X104284393Y-116023010D01*
X104121397Y-116131921D01*
X103940285Y-116206940D01*
X103748017Y-116245185D01*
X103551983Y-116245185D01*
X103359715Y-116206940D01*
X103178603Y-116131921D01*
X103015607Y-116023010D01*
X102876990Y-115884393D01*
X102768079Y-115721397D01*
X102693060Y-115540285D01*
X102654815Y-115348017D01*
X102654815Y-115151983D01*
X102693060Y-114959715D01*
X102768079Y-114778603D01*
X102876990Y-114615607D01*
X103015607Y-114476990D01*
X103178603Y-114368079D01*
X103359715Y-114293060D01*
X103551983Y-114254815D01*
X103748017Y-114254815D01*
X103940285Y-114293060D01*
G37*
G36*
X71612228Y-112434448D02*
G01*
X71757117Y-112494463D01*
X71887515Y-112581592D01*
X71998408Y-112692485D01*
X72085537Y-112822883D01*
X72145552Y-112967772D01*
X72176148Y-113121586D01*
X72176148Y-113278414D01*
X72145552Y-113432228D01*
X72085537Y-113577117D01*
X71998408Y-113707515D01*
X71887515Y-113818408D01*
X71757117Y-113905537D01*
X71612228Y-113965552D01*
X71458414Y-113996148D01*
X71301586Y-113996148D01*
X71147772Y-113965552D01*
X71002883Y-113905537D01*
X70872485Y-113818408D01*
X70761592Y-113707515D01*
X70674463Y-113577117D01*
X70614448Y-113432228D01*
X70583852Y-113278414D01*
X70583852Y-113121586D01*
X70614448Y-112967772D01*
X70674463Y-112822883D01*
X70761592Y-112692485D01*
X70872485Y-112581592D01*
X71002883Y-112494463D01*
X71147772Y-112434448D01*
X71301586Y-112403852D01*
X71458414Y-112403852D01*
X71612228Y-112434448D01*
G37*
G36*
X79232228Y-112434448D02*
G01*
X79377117Y-112494463D01*
X79507515Y-112581592D01*
X79618408Y-112692485D01*
X79705537Y-112822883D01*
X79765552Y-112967772D01*
X79796148Y-113121586D01*
X79796148Y-113278414D01*
X79765552Y-113432228D01*
X79705537Y-113577117D01*
X79618408Y-113707515D01*
X79507515Y-113818408D01*
X79377117Y-113905537D01*
X79232228Y-113965552D01*
X79078414Y-113996148D01*
X78921586Y-113996148D01*
X78767772Y-113965552D01*
X78622883Y-113905537D01*
X78492485Y-113818408D01*
X78381592Y-113707515D01*
X78294463Y-113577117D01*
X78234448Y-113432228D01*
X78203852Y-113278414D01*
X78203852Y-113121586D01*
X78234448Y-112967772D01*
X78294463Y-112822883D01*
X78381592Y-112692485D01*
X78492485Y-112581592D01*
X78622883Y-112494463D01*
X78767772Y-112434448D01*
X78921586Y-112403852D01*
X79078414Y-112403852D01*
X79232228Y-112434448D01*
G37*
G36*
X97440285Y-109793060D02*
G01*
X97621397Y-109868079D01*
X97784393Y-109976990D01*
X97923010Y-110115607D01*
X98031921Y-110278603D01*
X98106940Y-110459715D01*
X98145185Y-110651983D01*
X98145185Y-110848017D01*
X98106940Y-111040285D01*
X98031921Y-111221397D01*
X97923010Y-111384393D01*
X97784393Y-111523010D01*
X97621397Y-111631921D01*
X97440285Y-111706940D01*
X97248017Y-111745185D01*
X97051983Y-111745185D01*
X96859715Y-111706940D01*
X96678603Y-111631921D01*
X96515607Y-111523010D01*
X96376990Y-111384393D01*
X96268079Y-111221397D01*
X96193060Y-111040285D01*
X96154815Y-110848017D01*
X96154815Y-110651983D01*
X96193060Y-110459715D01*
X96268079Y-110278603D01*
X96376990Y-110115607D01*
X96515607Y-109976990D01*
X96678603Y-109868079D01*
X96859715Y-109793060D01*
X97051983Y-109754815D01*
X97248017Y-109754815D01*
X97440285Y-109793060D01*
G37*
G36*
X103940285Y-109793060D02*
G01*
X104121397Y-109868079D01*
X104284393Y-109976990D01*
X104423010Y-110115607D01*
X104531921Y-110278603D01*
X104606940Y-110459715D01*
X104645185Y-110651983D01*
X104645185Y-110848017D01*
X104606940Y-111040285D01*
X104531921Y-111221397D01*
X104423010Y-111384393D01*
X104284393Y-111523010D01*
X104121397Y-111631921D01*
X103940285Y-111706940D01*
X103748017Y-111745185D01*
X103551983Y-111745185D01*
X103359715Y-111706940D01*
X103178603Y-111631921D01*
X103015607Y-111523010D01*
X102876990Y-111384393D01*
X102768079Y-111221397D01*
X102693060Y-111040285D01*
X102654815Y-110848017D01*
X102654815Y-110651983D01*
X102693060Y-110459715D01*
X102768079Y-110278603D01*
X102876990Y-110115607D01*
X103015607Y-109976990D01*
X103178603Y-109868079D01*
X103359715Y-109793060D01*
X103551983Y-109754815D01*
X103748017Y-109754815D01*
X103940285Y-109793060D01*
G37*
G36*
X147890000Y-106950000D02*
G01*
X146190000Y-106950000D01*
X146190000Y-105250000D01*
X147890000Y-105250000D01*
X147890000Y-106950000D01*
G37*
G36*
X142206742Y-105286601D02*
G01*
X142360687Y-105350367D01*
X142499234Y-105442941D01*
X142617059Y-105560766D01*
X142709633Y-105699313D01*
X142773399Y-105853258D01*
X142805907Y-106016685D01*
X142805907Y-106183315D01*
X142773399Y-106346742D01*
X142709633Y-106500687D01*
X142617059Y-106639234D01*
X142499234Y-106757059D01*
X142360687Y-106849633D01*
X142206742Y-106913399D01*
X142043315Y-106945907D01*
X141876685Y-106945907D01*
X141713258Y-106913399D01*
X141559313Y-106849633D01*
X141420766Y-106757059D01*
X141302941Y-106639234D01*
X141210367Y-106500687D01*
X141146601Y-106346742D01*
X141114093Y-106183315D01*
X141114093Y-106016685D01*
X141146601Y-105853258D01*
X141210367Y-105699313D01*
X141302941Y-105560766D01*
X141420766Y-105442941D01*
X141559313Y-105350367D01*
X141713258Y-105286601D01*
X141876685Y-105254093D01*
X142043315Y-105254093D01*
X142206742Y-105286601D01*
G37*
G36*
X144746742Y-105286601D02*
G01*
X144900687Y-105350367D01*
X145039234Y-105442941D01*
X145157059Y-105560766D01*
X145249633Y-105699313D01*
X145313399Y-105853258D01*
X145345907Y-106016685D01*
X145345907Y-106183315D01*
X145313399Y-106346742D01*
X145249633Y-106500687D01*
X145157059Y-106639234D01*
X145039234Y-106757059D01*
X144900687Y-106849633D01*
X144746742Y-106913399D01*
X144583315Y-106945907D01*
X144416685Y-106945907D01*
X144253258Y-106913399D01*
X144099313Y-106849633D01*
X143960766Y-106757059D01*
X143842941Y-106639234D01*
X143750367Y-106500687D01*
X143686601Y-106346742D01*
X143654093Y-106183315D01*
X143654093Y-106016685D01*
X143686601Y-105853258D01*
X143750367Y-105699313D01*
X143842941Y-105560766D01*
X143960766Y-105442941D01*
X144099313Y-105350367D01*
X144253258Y-105286601D01*
X144416685Y-105254093D01*
X144583315Y-105254093D01*
X144746742Y-105286601D01*
G37*
G36*
X57100000Y-97950000D02*
G01*
X55400000Y-97950000D01*
X55400000Y-96250000D01*
X57100000Y-96250000D01*
X57100000Y-97950000D01*
G37*
G36*
X48876742Y-96286601D02*
G01*
X49030687Y-96350367D01*
X49169234Y-96442941D01*
X49287059Y-96560766D01*
X49379633Y-96699313D01*
X49443399Y-96853258D01*
X49475907Y-97016685D01*
X49475907Y-97183315D01*
X49443399Y-97346742D01*
X49379633Y-97500687D01*
X49287059Y-97639234D01*
X49169234Y-97757059D01*
X49030687Y-97849633D01*
X48876742Y-97913399D01*
X48713315Y-97945907D01*
X48546685Y-97945907D01*
X48383258Y-97913399D01*
X48229313Y-97849633D01*
X48090766Y-97757059D01*
X47972941Y-97639234D01*
X47880367Y-97500687D01*
X47816601Y-97346742D01*
X47784093Y-97183315D01*
X47784093Y-97016685D01*
X47816601Y-96853258D01*
X47880367Y-96699313D01*
X47972941Y-96560766D01*
X48090766Y-96442941D01*
X48229313Y-96350367D01*
X48383258Y-96286601D01*
X48546685Y-96254093D01*
X48713315Y-96254093D01*
X48876742Y-96286601D01*
G37*
G36*
X51416742Y-96286601D02*
G01*
X51570687Y-96350367D01*
X51709234Y-96442941D01*
X51827059Y-96560766D01*
X51919633Y-96699313D01*
X51983399Y-96853258D01*
X52015907Y-97016685D01*
X52015907Y-97183315D01*
X51983399Y-97346742D01*
X51919633Y-97500687D01*
X51827059Y-97639234D01*
X51709234Y-97757059D01*
X51570687Y-97849633D01*
X51416742Y-97913399D01*
X51253315Y-97945907D01*
X51086685Y-97945907D01*
X50923258Y-97913399D01*
X50769313Y-97849633D01*
X50630766Y-97757059D01*
X50512941Y-97639234D01*
X50420367Y-97500687D01*
X50356601Y-97346742D01*
X50324093Y-97183315D01*
X50324093Y-97016685D01*
X50356601Y-96853258D01*
X50420367Y-96699313D01*
X50512941Y-96560766D01*
X50630766Y-96442941D01*
X50769313Y-96350367D01*
X50923258Y-96286601D01*
X51086685Y-96254093D01*
X51253315Y-96254093D01*
X51416742Y-96286601D01*
G37*
G36*
X53956742Y-96286601D02*
G01*
X54110687Y-96350367D01*
X54249234Y-96442941D01*
X54367059Y-96560766D01*
X54459633Y-96699313D01*
X54523399Y-96853258D01*
X54555907Y-97016685D01*
X54555907Y-97183315D01*
X54523399Y-97346742D01*
X54459633Y-97500687D01*
X54367059Y-97639234D01*
X54249234Y-97757059D01*
X54110687Y-97849633D01*
X53956742Y-97913399D01*
X53793315Y-97945907D01*
X53626685Y-97945907D01*
X53463258Y-97913399D01*
X53309313Y-97849633D01*
X53170766Y-97757059D01*
X53052941Y-97639234D01*
X52960367Y-97500687D01*
X52896601Y-97346742D01*
X52864093Y-97183315D01*
X52864093Y-97016685D01*
X52896601Y-96853258D01*
X52960367Y-96699313D01*
X53052941Y-96560766D01*
X53170766Y-96442941D01*
X53309313Y-96350367D01*
X53463258Y-96286601D01*
X53626685Y-96254093D01*
X53793315Y-96254093D01*
X53956742Y-96286601D01*
G37*
G36*
X95952000Y-64292000D02*
G01*
X94428000Y-64292000D01*
X94428000Y-62768000D01*
X95952000Y-62768000D01*
X95952000Y-64292000D01*
G37*
G36*
X97951197Y-62800811D02*
G01*
X98089204Y-62857976D01*
X98213408Y-62940966D01*
X98319034Y-63046592D01*
X98402024Y-63170796D01*
X98459189Y-63308803D01*
X98488331Y-63455311D01*
X98488331Y-63604689D01*
X98459189Y-63751197D01*
X98402024Y-63889204D01*
X98319034Y-64013408D01*
X98213408Y-64119034D01*
X98089204Y-64202024D01*
X97951197Y-64259189D01*
X97804689Y-64288331D01*
X97655311Y-64288331D01*
X97508803Y-64259189D01*
X97370796Y-64202024D01*
X97246592Y-64119034D01*
X97140966Y-64013408D01*
X97057976Y-63889204D01*
X97000811Y-63751197D01*
X96971669Y-63604689D01*
X96971669Y-63455311D01*
X97000811Y-63308803D01*
X97057976Y-63170796D01*
X97140966Y-63046592D01*
X97246592Y-62940966D01*
X97370796Y-62857976D01*
X97508803Y-62800811D01*
X97655311Y-62771669D01*
X97804689Y-62771669D01*
X97951197Y-62800811D01*
G37*
G36*
X100491197Y-62800811D02*
G01*
X100629204Y-62857976D01*
X100753408Y-62940966D01*
X100859034Y-63046592D01*
X100942024Y-63170796D01*
X100999189Y-63308803D01*
X101028331Y-63455311D01*
X101028331Y-63604689D01*
X100999189Y-63751197D01*
X100942024Y-63889204D01*
X100859034Y-64013408D01*
X100753408Y-64119034D01*
X100629204Y-64202024D01*
X100491197Y-64259189D01*
X100344689Y-64288331D01*
X100195311Y-64288331D01*
X100048803Y-64259189D01*
X99910796Y-64202024D01*
X99786592Y-64119034D01*
X99680966Y-64013408D01*
X99597976Y-63889204D01*
X99540811Y-63751197D01*
X99511669Y-63604689D01*
X99511669Y-63455311D01*
X99540811Y-63308803D01*
X99597976Y-63170796D01*
X99680966Y-63046592D01*
X99786592Y-62940966D01*
X99910796Y-62857976D01*
X100048803Y-62800811D01*
X100195311Y-62771669D01*
X100344689Y-62771669D01*
X100491197Y-62800811D01*
G37*
G36*
X103031197Y-62800811D02*
G01*
X103169204Y-62857976D01*
X103293408Y-62940966D01*
X103399034Y-63046592D01*
X103482024Y-63170796D01*
X103539189Y-63308803D01*
X103568331Y-63455311D01*
X103568331Y-63604689D01*
X103539189Y-63751197D01*
X103482024Y-63889204D01*
X103399034Y-64013408D01*
X103293408Y-64119034D01*
X103169204Y-64202024D01*
X103031197Y-64259189D01*
X102884689Y-64288331D01*
X102735311Y-64288331D01*
X102588803Y-64259189D01*
X102450796Y-64202024D01*
X102326592Y-64119034D01*
X102220966Y-64013408D01*
X102137976Y-63889204D01*
X102080811Y-63751197D01*
X102051669Y-63604689D01*
X102051669Y-63455311D01*
X102080811Y-63308803D01*
X102137976Y-63170796D01*
X102220966Y-63046592D01*
X102326592Y-62940966D01*
X102450796Y-62857976D01*
X102588803Y-62800811D01*
X102735311Y-62771669D01*
X102884689Y-62771669D01*
X103031197Y-62800811D01*
G37*
G36*
X140700000Y-54650000D02*
G01*
X139000000Y-54650000D01*
X139000000Y-52950000D01*
X140700000Y-52950000D01*
X140700000Y-54650000D01*
G37*
G36*
X142636742Y-52986601D02*
G01*
X142790687Y-53050367D01*
X142929234Y-53142941D01*
X143047059Y-53260766D01*
X143139633Y-53399313D01*
X143203399Y-53553258D01*
X143235907Y-53716685D01*
X143235907Y-53883315D01*
X143203399Y-54046742D01*
X143139633Y-54200687D01*
X143047059Y-54339234D01*
X142929234Y-54457059D01*
X142790687Y-54549633D01*
X142636742Y-54613399D01*
X142473315Y-54645907D01*
X142306685Y-54645907D01*
X142143258Y-54613399D01*
X141989313Y-54549633D01*
X141850766Y-54457059D01*
X141732941Y-54339234D01*
X141640367Y-54200687D01*
X141576601Y-54046742D01*
X141544093Y-53883315D01*
X141544093Y-53716685D01*
X141576601Y-53553258D01*
X141640367Y-53399313D01*
X141732941Y-53260766D01*
X141850766Y-53142941D01*
X141989313Y-53050367D01*
X142143258Y-52986601D01*
X142306685Y-52954093D01*
X142473315Y-52954093D01*
X142636742Y-52986601D01*
G37*
G36*
X145176742Y-52986601D02*
G01*
X145330687Y-53050367D01*
X145469234Y-53142941D01*
X145587059Y-53260766D01*
X145679633Y-53399313D01*
X145743399Y-53553258D01*
X145775907Y-53716685D01*
X145775907Y-53883315D01*
X145743399Y-54046742D01*
X145679633Y-54200687D01*
X145587059Y-54339234D01*
X145469234Y-54457059D01*
X145330687Y-54549633D01*
X145176742Y-54613399D01*
X145013315Y-54645907D01*
X144846685Y-54645907D01*
X144683258Y-54613399D01*
X144529313Y-54549633D01*
X144390766Y-54457059D01*
X144272941Y-54339234D01*
X144180367Y-54200687D01*
X144116601Y-54046742D01*
X144084093Y-53883315D01*
X144084093Y-53716685D01*
X144116601Y-53553258D01*
X144180367Y-53399313D01*
X144272941Y-53260766D01*
X144390766Y-53142941D01*
X144529313Y-53050367D01*
X144683258Y-52986601D01*
X144846685Y-52954093D01*
X145013315Y-52954093D01*
X145176742Y-52986601D01*
G37*
G36*
X147716742Y-52986601D02*
G01*
X147870687Y-53050367D01*
X148009234Y-53142941D01*
X148127059Y-53260766D01*
X148219633Y-53399313D01*
X148283399Y-53553258D01*
X148315907Y-53716685D01*
X148315907Y-53883315D01*
X148283399Y-54046742D01*
X148219633Y-54200687D01*
X148127059Y-54339234D01*
X148009234Y-54457059D01*
X147870687Y-54549633D01*
X147716742Y-54613399D01*
X147553315Y-54645907D01*
X147386685Y-54645907D01*
X147223258Y-54613399D01*
X147069313Y-54549633D01*
X146930766Y-54457059D01*
X146812941Y-54339234D01*
X146720367Y-54200687D01*
X146656601Y-54046742D01*
X146624093Y-53883315D01*
X146624093Y-53716685D01*
X146656601Y-53553258D01*
X146720367Y-53399313D01*
X146812941Y-53260766D01*
X146930766Y-53142941D01*
X147069313Y-53050367D01*
X147223258Y-52986601D01*
X147386685Y-52954093D01*
X147553315Y-52954093D01*
X147716742Y-52986601D01*
G37*
G36*
X74722228Y-52474448D02*
G01*
X74867117Y-52534463D01*
X74997515Y-52621592D01*
X75108408Y-52732485D01*
X75195537Y-52862883D01*
X75255552Y-53007772D01*
X75286148Y-53161586D01*
X75286148Y-53318414D01*
X75255552Y-53472228D01*
X75195537Y-53617117D01*
X75108408Y-53747515D01*
X74997515Y-53858408D01*
X74867117Y-53945537D01*
X74722228Y-54005552D01*
X74568414Y-54036148D01*
X74411586Y-54036148D01*
X74257772Y-54005552D01*
X74112883Y-53945537D01*
X73982485Y-53858408D01*
X73871592Y-53747515D01*
X73784463Y-53617117D01*
X73724448Y-53472228D01*
X73693852Y-53318414D01*
X73693852Y-53161586D01*
X73724448Y-53007772D01*
X73784463Y-52862883D01*
X73871592Y-52732485D01*
X73982485Y-52621592D01*
X74112883Y-52534463D01*
X74257772Y-52474448D01*
X74411586Y-52443852D01*
X74568414Y-52443852D01*
X74722228Y-52474448D01*
G37*
G36*
X77262228Y-52474448D02*
G01*
X77407117Y-52534463D01*
X77537515Y-52621592D01*
X77648408Y-52732485D01*
X77735537Y-52862883D01*
X77795552Y-53007772D01*
X77826148Y-53161586D01*
X77826148Y-53318414D01*
X77795552Y-53472228D01*
X77735537Y-53617117D01*
X77648408Y-53747515D01*
X77537515Y-53858408D01*
X77407117Y-53945537D01*
X77262228Y-54005552D01*
X77108414Y-54036148D01*
X76951586Y-54036148D01*
X76797772Y-54005552D01*
X76652883Y-53945537D01*
X76522485Y-53858408D01*
X76411592Y-53747515D01*
X76324463Y-53617117D01*
X76264448Y-53472228D01*
X76233852Y-53318414D01*
X76233852Y-53161586D01*
X76264448Y-53007772D01*
X76324463Y-52862883D01*
X76411592Y-52732485D01*
X76522485Y-52621592D01*
X76652883Y-52534463D01*
X76797772Y-52474448D01*
X76951586Y-52443852D01*
X77108414Y-52443852D01*
X77262228Y-52474448D01*
G37*
G36*
X79802228Y-52474448D02*
G01*
X79947117Y-52534463D01*
X80077515Y-52621592D01*
X80188408Y-52732485D01*
X80275537Y-52862883D01*
X80335552Y-53007772D01*
X80366148Y-53161586D01*
X80366148Y-53318414D01*
X80335552Y-53472228D01*
X80275537Y-53617117D01*
X80188408Y-53747515D01*
X80077515Y-53858408D01*
X79947117Y-53945537D01*
X79802228Y-54005552D01*
X79648414Y-54036148D01*
X79491586Y-54036148D01*
X79337772Y-54005552D01*
X79192883Y-53945537D01*
X79062485Y-53858408D01*
X78951592Y-53747515D01*
X78864463Y-53617117D01*
X78804448Y-53472228D01*
X78773852Y-53318414D01*
X78773852Y-53161586D01*
X78804448Y-53007772D01*
X78864463Y-52862883D01*
X78951592Y-52732485D01*
X79062485Y-52621592D01*
X79192883Y-52534463D01*
X79337772Y-52474448D01*
X79491586Y-52443852D01*
X79648414Y-52443852D01*
X79802228Y-52474448D01*
G37*
G36*
X82342228Y-52474448D02*
G01*
X82487117Y-52534463D01*
X82617515Y-52621592D01*
X82728408Y-52732485D01*
X82815537Y-52862883D01*
X82875552Y-53007772D01*
X82906148Y-53161586D01*
X82906148Y-53318414D01*
X82875552Y-53472228D01*
X82815537Y-53617117D01*
X82728408Y-53747515D01*
X82617515Y-53858408D01*
X82487117Y-53945537D01*
X82342228Y-54005552D01*
X82188414Y-54036148D01*
X82031586Y-54036148D01*
X81877772Y-54005552D01*
X81732883Y-53945537D01*
X81602485Y-53858408D01*
X81491592Y-53747515D01*
X81404463Y-53617117D01*
X81344448Y-53472228D01*
X81313852Y-53318414D01*
X81313852Y-53161586D01*
X81344448Y-53007772D01*
X81404463Y-52862883D01*
X81491592Y-52732485D01*
X81602485Y-52621592D01*
X81732883Y-52534463D01*
X81877772Y-52474448D01*
X82031586Y-52443852D01*
X82188414Y-52443852D01*
X82342228Y-52474448D01*
G37*
G36*
X84882228Y-52474448D02*
G01*
X85027117Y-52534463D01*
X85157515Y-52621592D01*
X85268408Y-52732485D01*
X85355537Y-52862883D01*
X85415552Y-53007772D01*
X85446148Y-53161586D01*
X85446148Y-53318414D01*
X85415552Y-53472228D01*
X85355537Y-53617117D01*
X85268408Y-53747515D01*
X85157515Y-53858408D01*
X85027117Y-53945537D01*
X84882228Y-54005552D01*
X84728414Y-54036148D01*
X84571586Y-54036148D01*
X84417772Y-54005552D01*
X84272883Y-53945537D01*
X84142485Y-53858408D01*
X84031592Y-53747515D01*
X83944463Y-53617117D01*
X83884448Y-53472228D01*
X83853852Y-53318414D01*
X83853852Y-53161586D01*
X83884448Y-53007772D01*
X83944463Y-52862883D01*
X84031592Y-52732485D01*
X84142485Y-52621592D01*
X84272883Y-52534463D01*
X84417772Y-52474448D01*
X84571586Y-52443852D01*
X84728414Y-52443852D01*
X84882228Y-52474448D01*
G37*
G36*
X87422228Y-52474448D02*
G01*
X87567117Y-52534463D01*
X87697515Y-52621592D01*
X87808408Y-52732485D01*
X87895537Y-52862883D01*
X87955552Y-53007772D01*
X87986148Y-53161586D01*
X87986148Y-53318414D01*
X87955552Y-53472228D01*
X87895537Y-53617117D01*
X87808408Y-53747515D01*
X87697515Y-53858408D01*
X87567117Y-53945537D01*
X87422228Y-54005552D01*
X87268414Y-54036148D01*
X87111586Y-54036148D01*
X86957772Y-54005552D01*
X86812883Y-53945537D01*
X86682485Y-53858408D01*
X86571592Y-53747515D01*
X86484463Y-53617117D01*
X86424448Y-53472228D01*
X86393852Y-53318414D01*
X86393852Y-53161586D01*
X86424448Y-53007772D01*
X86484463Y-52862883D01*
X86571592Y-52732485D01*
X86682485Y-52621592D01*
X86812883Y-52534463D01*
X86957772Y-52474448D01*
X87111586Y-52443852D01*
X87268414Y-52443852D01*
X87422228Y-52474448D01*
G37*
G36*
X89962228Y-52474448D02*
G01*
X90107117Y-52534463D01*
X90237515Y-52621592D01*
X90348408Y-52732485D01*
X90435537Y-52862883D01*
X90495552Y-53007772D01*
X90526148Y-53161586D01*
X90526148Y-53318414D01*
X90495552Y-53472228D01*
X90435537Y-53617117D01*
X90348408Y-53747515D01*
X90237515Y-53858408D01*
X90107117Y-53945537D01*
X89962228Y-54005552D01*
X89808414Y-54036148D01*
X89651586Y-54036148D01*
X89497772Y-54005552D01*
X89352883Y-53945537D01*
X89222485Y-53858408D01*
X89111592Y-53747515D01*
X89024463Y-53617117D01*
X88964448Y-53472228D01*
X88933852Y-53318414D01*
X88933852Y-53161586D01*
X88964448Y-53007772D01*
X89024463Y-52862883D01*
X89111592Y-52732485D01*
X89222485Y-52621592D01*
X89352883Y-52534463D01*
X89497772Y-52474448D01*
X89651586Y-52443852D01*
X89808414Y-52443852D01*
X89962228Y-52474448D01*
G37*
G36*
X92502228Y-52474448D02*
G01*
X92647117Y-52534463D01*
X92777515Y-52621592D01*
X92888408Y-52732485D01*
X92975537Y-52862883D01*
X93035552Y-53007772D01*
X93066148Y-53161586D01*
X93066148Y-53318414D01*
X93035552Y-53472228D01*
X92975537Y-53617117D01*
X92888408Y-53747515D01*
X92777515Y-53858408D01*
X92647117Y-53945537D01*
X92502228Y-54005552D01*
X92348414Y-54036148D01*
X92191586Y-54036148D01*
X92037772Y-54005552D01*
X91892883Y-53945537D01*
X91762485Y-53858408D01*
X91651592Y-53747515D01*
X91564463Y-53617117D01*
X91504448Y-53472228D01*
X91473852Y-53318414D01*
X91473852Y-53161586D01*
X91504448Y-53007772D01*
X91564463Y-52862883D01*
X91651592Y-52732485D01*
X91762485Y-52621592D01*
X91892883Y-52534463D01*
X92037772Y-52474448D01*
X92191586Y-52443852D01*
X92348414Y-52443852D01*
X92502228Y-52474448D01*
G37*
G36*
X95042228Y-52474448D02*
G01*
X95187117Y-52534463D01*
X95317515Y-52621592D01*
X95428408Y-52732485D01*
X95515537Y-52862883D01*
X95575552Y-53007772D01*
X95606148Y-53161586D01*
X95606148Y-53318414D01*
X95575552Y-53472228D01*
X95515537Y-53617117D01*
X95428408Y-53747515D01*
X95317515Y-53858408D01*
X95187117Y-53945537D01*
X95042228Y-54005552D01*
X94888414Y-54036148D01*
X94731586Y-54036148D01*
X94577772Y-54005552D01*
X94432883Y-53945537D01*
X94302485Y-53858408D01*
X94191592Y-53747515D01*
X94104463Y-53617117D01*
X94044448Y-53472228D01*
X94013852Y-53318414D01*
X94013852Y-53161586D01*
X94044448Y-53007772D01*
X94104463Y-52862883D01*
X94191592Y-52732485D01*
X94302485Y-52621592D01*
X94432883Y-52534463D01*
X94577772Y-52474448D01*
X94731586Y-52443852D01*
X94888414Y-52443852D01*
X95042228Y-52474448D01*
G37*
G36*
X97582228Y-52474448D02*
G01*
X97727117Y-52534463D01*
X97857515Y-52621592D01*
X97968408Y-52732485D01*
X98055537Y-52862883D01*
X98115552Y-53007772D01*
X98146148Y-53161586D01*
X98146148Y-53318414D01*
X98115552Y-53472228D01*
X98055537Y-53617117D01*
X97968408Y-53747515D01*
X97857515Y-53858408D01*
X97727117Y-53945537D01*
X97582228Y-54005552D01*
X97428414Y-54036148D01*
X97271586Y-54036148D01*
X97117772Y-54005552D01*
X96972883Y-53945537D01*
X96842485Y-53858408D01*
X96731592Y-53747515D01*
X96644463Y-53617117D01*
X96584448Y-53472228D01*
X96553852Y-53318414D01*
X96553852Y-53161586D01*
X96584448Y-53007772D01*
X96644463Y-52862883D01*
X96731592Y-52732485D01*
X96842485Y-52621592D01*
X96972883Y-52534463D01*
X97117772Y-52474448D01*
X97271586Y-52443852D01*
X97428414Y-52443852D01*
X97582228Y-52474448D01*
G37*
G36*
X100122228Y-52474448D02*
G01*
X100267117Y-52534463D01*
X100397515Y-52621592D01*
X100508408Y-52732485D01*
X100595537Y-52862883D01*
X100655552Y-53007772D01*
X100686148Y-53161586D01*
X100686148Y-53318414D01*
X100655552Y-53472228D01*
X100595537Y-53617117D01*
X100508408Y-53747515D01*
X100397515Y-53858408D01*
X100267117Y-53945537D01*
X100122228Y-54005552D01*
X99968414Y-54036148D01*
X99811586Y-54036148D01*
X99657772Y-54005552D01*
X99512883Y-53945537D01*
X99382485Y-53858408D01*
X99271592Y-53747515D01*
X99184463Y-53617117D01*
X99124448Y-53472228D01*
X99093852Y-53318414D01*
X99093852Y-53161586D01*
X99124448Y-53007772D01*
X99184463Y-52862883D01*
X99271592Y-52732485D01*
X99382485Y-52621592D01*
X99512883Y-52534463D01*
X99657772Y-52474448D01*
X99811586Y-52443852D01*
X99968414Y-52443852D01*
X100122228Y-52474448D01*
G37*
G36*
X102662228Y-52474448D02*
G01*
X102807117Y-52534463D01*
X102937515Y-52621592D01*
X103048408Y-52732485D01*
X103135537Y-52862883D01*
X103195552Y-53007772D01*
X103226148Y-53161586D01*
X103226148Y-53318414D01*
X103195552Y-53472228D01*
X103135537Y-53617117D01*
X103048408Y-53747515D01*
X102937515Y-53858408D01*
X102807117Y-53945537D01*
X102662228Y-54005552D01*
X102508414Y-54036148D01*
X102351586Y-54036148D01*
X102197772Y-54005552D01*
X102052883Y-53945537D01*
X101922485Y-53858408D01*
X101811592Y-53747515D01*
X101724463Y-53617117D01*
X101664448Y-53472228D01*
X101633852Y-53318414D01*
X101633852Y-53161586D01*
X101664448Y-53007772D01*
X101724463Y-52862883D01*
X101811592Y-52732485D01*
X101922485Y-52621592D01*
X102052883Y-52534463D01*
X102197772Y-52474448D01*
X102351586Y-52443852D01*
X102508414Y-52443852D01*
X102662228Y-52474448D01*
G37*
G36*
X105202228Y-52474448D02*
G01*
X105347117Y-52534463D01*
X105477515Y-52621592D01*
X105588408Y-52732485D01*
X105675537Y-52862883D01*
X105735552Y-53007772D01*
X105766148Y-53161586D01*
X105766148Y-53318414D01*
X105735552Y-53472228D01*
X105675537Y-53617117D01*
X105588408Y-53747515D01*
X105477515Y-53858408D01*
X105347117Y-53945537D01*
X105202228Y-54005552D01*
X105048414Y-54036148D01*
X104891586Y-54036148D01*
X104737772Y-54005552D01*
X104592883Y-53945537D01*
X104462485Y-53858408D01*
X104351592Y-53747515D01*
X104264463Y-53617117D01*
X104204448Y-53472228D01*
X104173852Y-53318414D01*
X104173852Y-53161586D01*
X104204448Y-53007772D01*
X104264463Y-52862883D01*
X104351592Y-52732485D01*
X104462485Y-52621592D01*
X104592883Y-52534463D01*
X104737772Y-52474448D01*
X104891586Y-52443852D01*
X105048414Y-52443852D01*
X105202228Y-52474448D01*
G37*
G36*
X107742228Y-52474448D02*
G01*
X107887117Y-52534463D01*
X108017515Y-52621592D01*
X108128408Y-52732485D01*
X108215537Y-52862883D01*
X108275552Y-53007772D01*
X108306148Y-53161586D01*
X108306148Y-53318414D01*
X108275552Y-53472228D01*
X108215537Y-53617117D01*
X108128408Y-53747515D01*
X108017515Y-53858408D01*
X107887117Y-53945537D01*
X107742228Y-54005552D01*
X107588414Y-54036148D01*
X107431586Y-54036148D01*
X107277772Y-54005552D01*
X107132883Y-53945537D01*
X107002485Y-53858408D01*
X106891592Y-53747515D01*
X106804463Y-53617117D01*
X106744448Y-53472228D01*
X106713852Y-53318414D01*
X106713852Y-53161586D01*
X106744448Y-53007772D01*
X106804463Y-52862883D01*
X106891592Y-52732485D01*
X107002485Y-52621592D01*
X107132883Y-52534463D01*
X107277772Y-52474448D01*
X107431586Y-52443852D01*
X107588414Y-52443852D01*
X107742228Y-52474448D01*
G37*
G36*
X110282228Y-52474448D02*
G01*
X110427117Y-52534463D01*
X110557515Y-52621592D01*
X110668408Y-52732485D01*
X110755537Y-52862883D01*
X110815552Y-53007772D01*
X110846148Y-53161586D01*
X110846148Y-53318414D01*
X110815552Y-53472228D01*
X110755537Y-53617117D01*
X110668408Y-53747515D01*
X110557515Y-53858408D01*
X110427117Y-53945537D01*
X110282228Y-54005552D01*
X110128414Y-54036148D01*
X109971586Y-54036148D01*
X109817772Y-54005552D01*
X109672883Y-53945537D01*
X109542485Y-53858408D01*
X109431592Y-53747515D01*
X109344463Y-53617117D01*
X109284448Y-53472228D01*
X109253852Y-53318414D01*
X109253852Y-53161586D01*
X109284448Y-53007772D01*
X109344463Y-52862883D01*
X109431592Y-52732485D01*
X109542485Y-52621592D01*
X109672883Y-52534463D01*
X109817772Y-52474448D01*
X109971586Y-52443852D01*
X110128414Y-52443852D01*
X110282228Y-52474448D01*
G37*
G36*
X47673513Y-38244208D02*
G01*
X47912293Y-38321793D01*
X48135998Y-38435776D01*
X48339117Y-38583350D01*
X48516650Y-38760883D01*
X48664224Y-38964002D01*
X48778207Y-39187707D01*
X48855792Y-39426487D01*
X48895068Y-39674465D01*
X48895068Y-39925535D01*
X48855792Y-40173513D01*
X48778207Y-40412293D01*
X48664224Y-40635998D01*
X48516650Y-40839117D01*
X48339117Y-41016650D01*
X48135998Y-41164224D01*
X47912293Y-41278207D01*
X47673513Y-41355792D01*
X47425535Y-41395068D01*
X47174465Y-41395068D01*
X46926487Y-41355792D01*
X46687707Y-41278207D01*
X46464002Y-41164224D01*
X46260883Y-41016650D01*
X46083350Y-40839117D01*
X45935776Y-40635998D01*
X45821793Y-40412293D01*
X45744208Y-40173513D01*
X45704932Y-39925535D01*
X45704932Y-39674465D01*
X45744208Y-39426487D01*
X45821793Y-39187707D01*
X45935776Y-38964002D01*
X46083350Y-38760883D01*
X46260883Y-38583350D01*
X46464002Y-38435776D01*
X46687707Y-38321793D01*
X46926487Y-38244208D01*
X47174465Y-38204932D01*
X47425535Y-38204932D01*
X47673513Y-38244208D01*
G37*
G36*
X151873513Y-37344208D02*
G01*
X152112293Y-37421793D01*
X152335998Y-37535776D01*
X152539117Y-37683350D01*
X152716650Y-37860883D01*
X152864224Y-38064002D01*
X152978207Y-38287707D01*
X153055792Y-38526487D01*
X153095068Y-38774465D01*
X153095068Y-39025535D01*
X153055792Y-39273513D01*
X152978207Y-39512293D01*
X152864224Y-39735998D01*
X152716650Y-39939117D01*
X152539117Y-40116650D01*
X152335998Y-40264224D01*
X152112293Y-40378207D01*
X151873513Y-40455792D01*
X151625535Y-40495068D01*
X151374465Y-40495068D01*
X151126487Y-40455792D01*
X150887707Y-40378207D01*
X150664002Y-40264224D01*
X150460883Y-40116650D01*
X150283350Y-39939117D01*
X150135776Y-39735998D01*
X150021793Y-39512293D01*
X149944208Y-39273513D01*
X149904932Y-39025535D01*
X149904932Y-38774465D01*
X149944208Y-38526487D01*
X150021793Y-38287707D01*
X150135776Y-38064002D01*
X150283350Y-37860883D01*
X150460883Y-37683350D01*
X150664002Y-37535776D01*
X150887707Y-37421793D01*
X151126487Y-37344208D01*
X151374465Y-37304932D01*
X151625535Y-37304932D01*
X151873513Y-37344208D01*
G37*
G36*
X110850000Y-38800000D02*
G01*
X109250000Y-38800000D01*
X109250000Y-37200000D01*
X110850000Y-37200000D01*
X110850000Y-38800000D01*
G37*
G36*
X74722228Y-37234448D02*
G01*
X74867117Y-37294463D01*
X74997515Y-37381592D01*
X75108408Y-37492485D01*
X75195537Y-37622883D01*
X75255552Y-37767772D01*
X75286148Y-37921586D01*
X75286148Y-38078414D01*
X75255552Y-38232228D01*
X75195537Y-38377117D01*
X75108408Y-38507515D01*
X74997515Y-38618408D01*
X74867117Y-38705537D01*
X74722228Y-38765552D01*
X74568414Y-38796148D01*
X74411586Y-38796148D01*
X74257772Y-38765552D01*
X74112883Y-38705537D01*
X73982485Y-38618408D01*
X73871592Y-38507515D01*
X73784463Y-38377117D01*
X73724448Y-38232228D01*
X73693852Y-38078414D01*
X73693852Y-37921586D01*
X73724448Y-37767772D01*
X73784463Y-37622883D01*
X73871592Y-37492485D01*
X73982485Y-37381592D01*
X74112883Y-37294463D01*
X74257772Y-37234448D01*
X74411586Y-37203852D01*
X74568414Y-37203852D01*
X74722228Y-37234448D01*
G37*
G36*
X77262228Y-37234448D02*
G01*
X77407117Y-37294463D01*
X77537515Y-37381592D01*
X77648408Y-37492485D01*
X77735537Y-37622883D01*
X77795552Y-37767772D01*
X77826148Y-37921586D01*
X77826148Y-38078414D01*
X77795552Y-38232228D01*
X77735537Y-38377117D01*
X77648408Y-38507515D01*
X77537515Y-38618408D01*
X77407117Y-38705537D01*
X77262228Y-38765552D01*
X77108414Y-38796148D01*
X76951586Y-38796148D01*
X76797772Y-38765552D01*
X76652883Y-38705537D01*
X76522485Y-38618408D01*
X76411592Y-38507515D01*
X76324463Y-38377117D01*
X76264448Y-38232228D01*
X76233852Y-38078414D01*
X76233852Y-37921586D01*
X76264448Y-37767772D01*
X76324463Y-37622883D01*
X76411592Y-37492485D01*
X76522485Y-37381592D01*
X76652883Y-37294463D01*
X76797772Y-37234448D01*
X76951586Y-37203852D01*
X77108414Y-37203852D01*
X77262228Y-37234448D01*
G37*
G36*
X79802228Y-37234448D02*
G01*
X79947117Y-37294463D01*
X80077515Y-37381592D01*
X80188408Y-37492485D01*
X80275537Y-37622883D01*
X80335552Y-37767772D01*
X80366148Y-37921586D01*
X80366148Y-38078414D01*
X80335552Y-38232228D01*
X80275537Y-38377117D01*
X80188408Y-38507515D01*
X80077515Y-38618408D01*
X79947117Y-38705537D01*
X79802228Y-38765552D01*
X79648414Y-38796148D01*
X79491586Y-38796148D01*
X79337772Y-38765552D01*
X79192883Y-38705537D01*
X79062485Y-38618408D01*
X78951592Y-38507515D01*
X78864463Y-38377117D01*
X78804448Y-38232228D01*
X78773852Y-38078414D01*
X78773852Y-37921586D01*
X78804448Y-37767772D01*
X78864463Y-37622883D01*
X78951592Y-37492485D01*
X79062485Y-37381592D01*
X79192883Y-37294463D01*
X79337772Y-37234448D01*
X79491586Y-37203852D01*
X79648414Y-37203852D01*
X79802228Y-37234448D01*
G37*
G36*
X82342228Y-37234448D02*
G01*
X82487117Y-37294463D01*
X82617515Y-37381592D01*
X82728408Y-37492485D01*
X82815537Y-37622883D01*
X82875552Y-37767772D01*
X82906148Y-37921586D01*
X82906148Y-38078414D01*
X82875552Y-38232228D01*
X82815537Y-38377117D01*
X82728408Y-38507515D01*
X82617515Y-38618408D01*
X82487117Y-38705537D01*
X82342228Y-38765552D01*
X82188414Y-38796148D01*
X82031586Y-38796148D01*
X81877772Y-38765552D01*
X81732883Y-38705537D01*
X81602485Y-38618408D01*
X81491592Y-38507515D01*
X81404463Y-38377117D01*
X81344448Y-38232228D01*
X81313852Y-38078414D01*
X81313852Y-37921586D01*
X81344448Y-37767772D01*
X81404463Y-37622883D01*
X81491592Y-37492485D01*
X81602485Y-37381592D01*
X81732883Y-37294463D01*
X81877772Y-37234448D01*
X82031586Y-37203852D01*
X82188414Y-37203852D01*
X82342228Y-37234448D01*
G37*
G36*
X84882228Y-37234448D02*
G01*
X85027117Y-37294463D01*
X85157515Y-37381592D01*
X85268408Y-37492485D01*
X85355537Y-37622883D01*
X85415552Y-37767772D01*
X85446148Y-37921586D01*
X85446148Y-38078414D01*
X85415552Y-38232228D01*
X85355537Y-38377117D01*
X85268408Y-38507515D01*
X85157515Y-38618408D01*
X85027117Y-38705537D01*
X84882228Y-38765552D01*
X84728414Y-38796148D01*
X84571586Y-38796148D01*
X84417772Y-38765552D01*
X84272883Y-38705537D01*
X84142485Y-38618408D01*
X84031592Y-38507515D01*
X83944463Y-38377117D01*
X83884448Y-38232228D01*
X83853852Y-38078414D01*
X83853852Y-37921586D01*
X83884448Y-37767772D01*
X83944463Y-37622883D01*
X84031592Y-37492485D01*
X84142485Y-37381592D01*
X84272883Y-37294463D01*
X84417772Y-37234448D01*
X84571586Y-37203852D01*
X84728414Y-37203852D01*
X84882228Y-37234448D01*
G37*
G36*
X87422228Y-37234448D02*
G01*
X87567117Y-37294463D01*
X87697515Y-37381592D01*
X87808408Y-37492485D01*
X87895537Y-37622883D01*
X87955552Y-37767772D01*
X87986148Y-37921586D01*
X87986148Y-38078414D01*
X87955552Y-38232228D01*
X87895537Y-38377117D01*
X87808408Y-38507515D01*
X87697515Y-38618408D01*
X87567117Y-38705537D01*
X87422228Y-38765552D01*
X87268414Y-38796148D01*
X87111586Y-38796148D01*
X86957772Y-38765552D01*
X86812883Y-38705537D01*
X86682485Y-38618408D01*
X86571592Y-38507515D01*
X86484463Y-38377117D01*
X86424448Y-38232228D01*
X86393852Y-38078414D01*
X86393852Y-37921586D01*
X86424448Y-37767772D01*
X86484463Y-37622883D01*
X86571592Y-37492485D01*
X86682485Y-37381592D01*
X86812883Y-37294463D01*
X86957772Y-37234448D01*
X87111586Y-37203852D01*
X87268414Y-37203852D01*
X87422228Y-37234448D01*
G37*
G36*
X89962228Y-37234448D02*
G01*
X90107117Y-37294463D01*
X90237515Y-37381592D01*
X90348408Y-37492485D01*
X90435537Y-37622883D01*
X90495552Y-37767772D01*
X90526148Y-37921586D01*
X90526148Y-38078414D01*
X90495552Y-38232228D01*
X90435537Y-38377117D01*
X90348408Y-38507515D01*
X90237515Y-38618408D01*
X90107117Y-38705537D01*
X89962228Y-38765552D01*
X89808414Y-38796148D01*
X89651586Y-38796148D01*
X89497772Y-38765552D01*
X89352883Y-38705537D01*
X89222485Y-38618408D01*
X89111592Y-38507515D01*
X89024463Y-38377117D01*
X88964448Y-38232228D01*
X88933852Y-38078414D01*
X88933852Y-37921586D01*
X88964448Y-37767772D01*
X89024463Y-37622883D01*
X89111592Y-37492485D01*
X89222485Y-37381592D01*
X89352883Y-37294463D01*
X89497772Y-37234448D01*
X89651586Y-37203852D01*
X89808414Y-37203852D01*
X89962228Y-37234448D01*
G37*
G36*
X92502228Y-37234448D02*
G01*
X92647117Y-37294463D01*
X92777515Y-37381592D01*
X92888408Y-37492485D01*
X92975537Y-37622883D01*
X93035552Y-37767772D01*
X93066148Y-37921586D01*
X93066148Y-38078414D01*
X93035552Y-38232228D01*
X92975537Y-38377117D01*
X92888408Y-38507515D01*
X92777515Y-38618408D01*
X92647117Y-38705537D01*
X92502228Y-38765552D01*
X92348414Y-38796148D01*
X92191586Y-38796148D01*
X92037772Y-38765552D01*
X91892883Y-38705537D01*
X91762485Y-38618408D01*
X91651592Y-38507515D01*
X91564463Y-38377117D01*
X91504448Y-38232228D01*
X91473852Y-38078414D01*
X91473852Y-37921586D01*
X91504448Y-37767772D01*
X91564463Y-37622883D01*
X91651592Y-37492485D01*
X91762485Y-37381592D01*
X91892883Y-37294463D01*
X92037772Y-37234448D01*
X92191586Y-37203852D01*
X92348414Y-37203852D01*
X92502228Y-37234448D01*
G37*
G36*
X95042228Y-37234448D02*
G01*
X95187117Y-37294463D01*
X95317515Y-37381592D01*
X95428408Y-37492485D01*
X95515537Y-37622883D01*
X95575552Y-37767772D01*
X95606148Y-37921586D01*
X95606148Y-38078414D01*
X95575552Y-38232228D01*
X95515537Y-38377117D01*
X95428408Y-38507515D01*
X95317515Y-38618408D01*
X95187117Y-38705537D01*
X95042228Y-38765552D01*
X94888414Y-38796148D01*
X94731586Y-38796148D01*
X94577772Y-38765552D01*
X94432883Y-38705537D01*
X94302485Y-38618408D01*
X94191592Y-38507515D01*
X94104463Y-38377117D01*
X94044448Y-38232228D01*
X94013852Y-38078414D01*
X94013852Y-37921586D01*
X94044448Y-37767772D01*
X94104463Y-37622883D01*
X94191592Y-37492485D01*
X94302485Y-37381592D01*
X94432883Y-37294463D01*
X94577772Y-37234448D01*
X94731586Y-37203852D01*
X94888414Y-37203852D01*
X95042228Y-37234448D01*
G37*
G36*
X97582228Y-37234448D02*
G01*
X97727117Y-37294463D01*
X97857515Y-37381592D01*
X97968408Y-37492485D01*
X98055537Y-37622883D01*
X98115552Y-37767772D01*
X98146148Y-37921586D01*
X98146148Y-38078414D01*
X98115552Y-38232228D01*
X98055537Y-38377117D01*
X97968408Y-38507515D01*
X97857515Y-38618408D01*
X97727117Y-38705537D01*
X97582228Y-38765552D01*
X97428414Y-38796148D01*
X97271586Y-38796148D01*
X97117772Y-38765552D01*
X96972883Y-38705537D01*
X96842485Y-38618408D01*
X96731592Y-38507515D01*
X96644463Y-38377117D01*
X96584448Y-38232228D01*
X96553852Y-38078414D01*
X96553852Y-37921586D01*
X96584448Y-37767772D01*
X96644463Y-37622883D01*
X96731592Y-37492485D01*
X96842485Y-37381592D01*
X96972883Y-37294463D01*
X97117772Y-37234448D01*
X97271586Y-37203852D01*
X97428414Y-37203852D01*
X97582228Y-37234448D01*
G37*
G36*
X100122228Y-37234448D02*
G01*
X100267117Y-37294463D01*
X100397515Y-37381592D01*
X100508408Y-37492485D01*
X100595537Y-37622883D01*
X100655552Y-37767772D01*
X100686148Y-37921586D01*
X100686148Y-38078414D01*
X100655552Y-38232228D01*
X100595537Y-38377117D01*
X100508408Y-38507515D01*
X100397515Y-38618408D01*
X100267117Y-38705537D01*
X100122228Y-38765552D01*
X99968414Y-38796148D01*
X99811586Y-38796148D01*
X99657772Y-38765552D01*
X99512883Y-38705537D01*
X99382485Y-38618408D01*
X99271592Y-38507515D01*
X99184463Y-38377117D01*
X99124448Y-38232228D01*
X99093852Y-38078414D01*
X99093852Y-37921586D01*
X99124448Y-37767772D01*
X99184463Y-37622883D01*
X99271592Y-37492485D01*
X99382485Y-37381592D01*
X99512883Y-37294463D01*
X99657772Y-37234448D01*
X99811586Y-37203852D01*
X99968414Y-37203852D01*
X100122228Y-37234448D01*
G37*
G36*
X102662228Y-37234448D02*
G01*
X102807117Y-37294463D01*
X102937515Y-37381592D01*
X103048408Y-37492485D01*
X103135537Y-37622883D01*
X103195552Y-37767772D01*
X103226148Y-37921586D01*
X103226148Y-38078414D01*
X103195552Y-38232228D01*
X103135537Y-38377117D01*
X103048408Y-38507515D01*
X102937515Y-38618408D01*
X102807117Y-38705537D01*
X102662228Y-38765552D01*
X102508414Y-38796148D01*
X102351586Y-38796148D01*
X102197772Y-38765552D01*
X102052883Y-38705537D01*
X101922485Y-38618408D01*
X101811592Y-38507515D01*
X101724463Y-38377117D01*
X101664448Y-38232228D01*
X101633852Y-38078414D01*
X101633852Y-37921586D01*
X101664448Y-37767772D01*
X101724463Y-37622883D01*
X101811592Y-37492485D01*
X101922485Y-37381592D01*
X102052883Y-37294463D01*
X102197772Y-37234448D01*
X102351586Y-37203852D01*
X102508414Y-37203852D01*
X102662228Y-37234448D01*
G37*
G36*
X105202228Y-37234448D02*
G01*
X105347117Y-37294463D01*
X105477515Y-37381592D01*
X105588408Y-37492485D01*
X105675537Y-37622883D01*
X105735552Y-37767772D01*
X105766148Y-37921586D01*
X105766148Y-38078414D01*
X105735552Y-38232228D01*
X105675537Y-38377117D01*
X105588408Y-38507515D01*
X105477515Y-38618408D01*
X105347117Y-38705537D01*
X105202228Y-38765552D01*
X105048414Y-38796148D01*
X104891586Y-38796148D01*
X104737772Y-38765552D01*
X104592883Y-38705537D01*
X104462485Y-38618408D01*
X104351592Y-38507515D01*
X104264463Y-38377117D01*
X104204448Y-38232228D01*
X104173852Y-38078414D01*
X104173852Y-37921586D01*
X104204448Y-37767772D01*
X104264463Y-37622883D01*
X104351592Y-37492485D01*
X104462485Y-37381592D01*
X104592883Y-37294463D01*
X104737772Y-37234448D01*
X104891586Y-37203852D01*
X105048414Y-37203852D01*
X105202228Y-37234448D01*
G37*
G36*
X107742228Y-37234448D02*
G01*
X107887117Y-37294463D01*
X108017515Y-37381592D01*
X108128408Y-37492485D01*
X108215537Y-37622883D01*
X108275552Y-37767772D01*
X108306148Y-37921586D01*
X108306148Y-38078414D01*
X108275552Y-38232228D01*
X108215537Y-38377117D01*
X108128408Y-38507515D01*
X108017515Y-38618408D01*
X107887117Y-38705537D01*
X107742228Y-38765552D01*
X107588414Y-38796148D01*
X107431586Y-38796148D01*
X107277772Y-38765552D01*
X107132883Y-38705537D01*
X107002485Y-38618408D01*
X106891592Y-38507515D01*
X106804463Y-38377117D01*
X106744448Y-38232228D01*
X106713852Y-38078414D01*
X106713852Y-37921586D01*
X106744448Y-37767772D01*
X106804463Y-37622883D01*
X106891592Y-37492485D01*
X107002485Y-37381592D01*
X107132883Y-37294463D01*
X107277772Y-37234448D01*
X107431586Y-37203852D01*
X107588414Y-37203852D01*
X107742228Y-37234448D01*
G37*
%LPD*%
M02*
