M48
; DRILL file {KiCad 9.0.6} date 2025-12-21T20:31:45-0800
; FORMAT={-:-/ absolute / metric / decimal}
; #@! TF.CreationDate,2025-12-21T20:31:45-08:00
; #@! TF.GenerationSoftware,Kicad,Pcbnew,9.0.6
; #@! TF.FileFunction,Plated,1,4,PTH
FMAT,2
METRIC
; #@! TA.AperFunction,Plated,PTH,ViaDrill
T1C0.300
; #@! TA.AperFunction,Plated,PTH,ComponentDrill
T2C0.762
; #@! TA.AperFunction,Plated,PTH,ComponentDrill
T3C0.800
; #@! TA.AperFunction,Plated,PTH,ComponentDrill
T4C1.000
; #@! TA.AperFunction,Plated,PTH,ComponentDrill
T5C1.100
%
G90
G05
T1
X86.2Y-107.2
X99.6Y-58.0
X101.1Y-59.4
X131.9Y-103.0
X144.5Y-82.61
T2
X95.19Y-63.53
X97.73Y-63.53
X100.27Y-63.53
X102.81Y-63.53
T3
X71.38Y-113.2
X79.0Y-113.2
T4
X48.63Y-97.1
X51.17Y-97.1
X53.71Y-97.1
X56.25Y-97.1
X74.49Y-38.0
X74.49Y-53.24
X77.03Y-38.0
X77.03Y-53.24
X79.57Y-38.0
X79.57Y-53.24
X82.11Y-38.0
X82.11Y-53.24
X84.65Y-38.0
X84.65Y-53.24
X87.19Y-38.0
X87.19Y-53.24
X89.73Y-38.0
X89.73Y-53.24
X92.27Y-38.0
X92.27Y-53.24
X94.81Y-38.0
X94.81Y-53.24
X97.35Y-38.0
X97.35Y-53.24
X99.89Y-38.0
X99.89Y-53.24
X102.43Y-38.0
X102.43Y-53.24
X104.97Y-38.0
X104.97Y-53.24
X107.51Y-38.0
X107.51Y-53.24
X110.05Y-38.0
X110.05Y-53.24
X139.85Y-53.8
X141.96Y-106.1
X142.39Y-53.8
X144.5Y-106.1
X144.93Y-53.8
X147.04Y-106.1
X147.47Y-53.8
T5
X97.15Y-110.75
X97.15Y-115.25
X103.65Y-110.75
X103.65Y-115.25
M30
