G04 #@! TF.GenerationSoftware,KiCad,Pcbnew,9.0.6*
G04 #@! TF.CreationDate,2025-12-21T20:31:47-08:00*
G04 #@! TF.ProjectId,enviroment_sensor,656e7669-726f-46d6-956e-745f73656e73,rev?*
G04 #@! TF.SameCoordinates,Original*
G04 #@! TF.FileFunction,Legend,Bot*
G04 #@! TF.FilePolarity,Positive*
%FSLAX46Y46*%
G04 Gerber Fmt 4.6, Leading zero omitted, Abs format (unit mm)*
G04 Created by KiCad (PCBNEW 9.0.6) date 2025-12-21 20:31:47*
%MOMM*%
%LPD*%
G01*
G04 APERTURE LIST*
G04 APERTURE END LIST*
%LPC*%
G36*
X46873513Y-114544208D02*
G01*
X47112293Y-114621793D01*
X47335998Y-114735776D01*
X47539117Y-114883350D01*
X47716650Y-115060883D01*
X47864224Y-115264002D01*
X47978207Y-115487707D01*
X48055792Y-115726487D01*
X48095068Y-115974465D01*
X48095068Y-116225535D01*
X48055792Y-116473513D01*
X47978207Y-116712293D01*
X47864224Y-116935998D01*
X47716650Y-117139117D01*
X47539117Y-117316650D01*
X47335998Y-117464224D01*
X47112293Y-117578207D01*
X46873513Y-117655792D01*
X46625535Y-117695068D01*
X46374465Y-117695068D01*
X46126487Y-117655792D01*
X45887707Y-117578207D01*
X45664002Y-117464224D01*
X45460883Y-117316650D01*
X45283350Y-117139117D01*
X45135776Y-116935998D01*
X45021793Y-116712293D01*
X44944208Y-116473513D01*
X44904932Y-116225535D01*
X44904932Y-115974465D01*
X44944208Y-115726487D01*
X45021793Y-115487707D01*
X45135776Y-115264002D01*
X45283350Y-115060883D01*
X45460883Y-114883350D01*
X45664002Y-114735776D01*
X45887707Y-114621793D01*
X46126487Y-114544208D01*
X46374465Y-114504932D01*
X46625535Y-114504932D01*
X46873513Y-114544208D01*
G37*
G36*
X151973513Y-114144208D02*
G01*
X152212293Y-114221793D01*
X152435998Y-114335776D01*
X152639117Y-114483350D01*
X152816650Y-114660883D01*
X152964224Y-114864002D01*
X153078207Y-115087707D01*
X153155792Y-115326487D01*
X153195068Y-115574465D01*
X153195068Y-115825535D01*
X153155792Y-116073513D01*
X153078207Y-116312293D01*
X152964224Y-116535998D01*
X152816650Y-116739117D01*
X152639117Y-116916650D01*
X152435998Y-117064224D01*
X152212293Y-117178207D01*
X151973513Y-117255792D01*
X151725535Y-117295068D01*
X151474465Y-117295068D01*
X151226487Y-117255792D01*
X150987707Y-117178207D01*
X150764002Y-117064224D01*
X150560883Y-116916650D01*
X150383350Y-116739117D01*
X150235776Y-116535998D01*
X150121793Y-116312293D01*
X150044208Y-116073513D01*
X150004932Y-115825535D01*
X150004932Y-115574465D01*
X150044208Y-115326487D01*
X150121793Y-115087707D01*
X150235776Y-114864002D01*
X150383350Y-114660883D01*
X150560883Y-114483350D01*
X150764002Y-114335776D01*
X150987707Y-114221793D01*
X151226487Y-114144208D01*
X151474465Y-114104932D01*
X151725535Y-114104932D01*
X151973513Y-114144208D01*
G37*
G36*
X97440285Y-114293060D02*
G01*
X97621397Y-114368079D01*
X97784393Y-114476990D01*
X97923010Y-114615607D01*
X98031921Y-114778603D01*
X98106940Y-114959715D01*
X98145185Y-115151983D01*
X98145185Y-115348017D01*
X98106940Y-115540285D01*
X98031921Y-115721397D01*
X97923010Y-115884393D01*
X97784393Y-116023010D01*
X97621397Y-116131921D01*
X97440285Y-116206940D01*
X97248017Y-116245185D01*
X97051983Y-116245185D01*
X96859715Y-116206940D01*
X96678603Y-116131921D01*
X96515607Y-116023010D01*
X96376990Y-115884393D01*
X96268079Y-115721397D01*
X96193060Y-115540285D01*
X96154815Y-115348017D01*
X96154815Y-115151983D01*
X96193060Y-114959715D01*
X96268079Y-114778603D01*
X96376990Y-114615607D01*
X96515607Y-114476990D01*
X96678603Y-114368079D01*
X96859715Y-114293060D01*
X97051983Y-114254815D01*
X97248017Y-114254815D01*
X97440285Y-114293060D01*
G37*
G36*
X103940285Y-114293060D02*
G01*
X104121397Y-114368079D01*
X104284393Y-114476990D01*
X104423010Y-114615607D01*
X104531921Y-114778603D01*
X104606940Y-114959715D01*
X104645185Y-115151983D01*
X104645185Y-115348017D01*
X104606940Y-115540285D01*
X104531921Y-115721397D01*
X104423010Y-115884393D01*
X104284393Y-116023010D01*
X104121397Y-116131921D01*
X103940285Y-116206940D01*
X103748017Y-116245185D01*
X103551983Y-116245185D01*
X103359715Y-116206940D01*
X103178603Y-116131921D01*
X103015607Y-116023010D01*
X102876990Y-115884393D01*
X102768079Y-115721397D01*
X102693060Y-115540285D01*
X102654815Y-115348017D01*
X102654815Y-115151983D01*
X102693060Y-114959715D01*
X102768079Y-114778603D01*
X102876990Y-114615607D01*
X103015607Y-114476990D01*
X103178603Y-114368079D01*
X103359715Y-114293060D01*
X103551983Y-114254815D01*
X103748017Y-114254815D01*
X103940285Y-114293060D01*
G37*
G36*
X71612228Y-112434448D02*
G01*
X71757117Y-112494463D01*
X71887515Y-112581592D01*
X71998408Y-112692485D01*
X72085537Y-112822883D01*
X72145552Y-112967772D01*
X72176148Y-113121586D01*
X72176148Y-113278414D01*
X72145552Y-113432228D01*
X72085537Y-113577117D01*
X71998408Y-113707515D01*
X71887515Y-113818408D01*
X71757117Y-113905537D01*
X71612228Y-113965552D01*
X71458414Y-113996148D01*
X71301586Y-113996148D01*
X71147772Y-113965552D01*
X71002883Y-113905537D01*
X70872485Y-113818408D01*
X70761592Y-113707515D01*
X70674463Y-113577117D01*
X70614448Y-113432228D01*
X70583852Y-113278414D01*
X70583852Y-113121586D01*
X70614448Y-112967772D01*
X70674463Y-112822883D01*
X70761592Y-112692485D01*
X70872485Y-112581592D01*
X71002883Y-112494463D01*
X71147772Y-112434448D01*
X71301586Y-112403852D01*
X71458414Y-112403852D01*
X71612228Y-112434448D01*
G37*
G36*
X79232228Y-112434448D02*
G01*
X79377117Y-112494463D01*
X79507515Y-112581592D01*
X79618408Y-112692485D01*
X79705537Y-112822883D01*
X79765552Y-112967772D01*
X79796148Y-113121586D01*
X79796148Y-113278414D01*
X79765552Y-113432228D01*
X79705537Y-113577117D01*
X79618408Y-113707515D01*
X79507515Y-113818408D01*
X79377117Y-113905537D01*
X79232228Y-113965552D01*
X79078414Y-113996148D01*
X78921586Y-113996148D01*
X78767772Y-113965552D01*
X78622883Y-113905537D01*
X78492485Y-113818408D01*
X78381592Y-113707515D01*
X78294463Y-113577117D01*
X78234448Y-113432228D01*
X78203852Y-113278414D01*
X78203852Y-113121586D01*
X78234448Y-112967772D01*
X78294463Y-112822883D01*
X78381592Y-112692485D01*
X78492485Y-112581592D01*
X78622883Y-112494463D01*
X78767772Y-112434448D01*
X78921586Y-112403852D01*
X79078414Y-112403852D01*
X79232228Y-112434448D01*
G37*
G36*
X97440285Y-109793060D02*
G01*
X97621397Y-109868079D01*
X97784393Y-109976990D01*
X97923010Y-110115607D01*
X98031921Y-110278603D01*
X98106940Y-110459715D01*
X98145185Y-110651983D01*
X98145185Y-110848017D01*
X98106940Y-111040285D01*
X98031921Y-111221397D01*
X97923010Y-111384393D01*
X97784393Y-111523010D01*
X97621397Y-111631921D01*
X97440285Y-111706940D01*
X97248017Y-111745185D01*
X97051983Y-111745185D01*
X96859715Y-111706940D01*
X96678603Y-111631921D01*
X96515607Y-111523010D01*
X96376990Y-111384393D01*
X96268079Y-111221397D01*
X96193060Y-111040285D01*
X96154815Y-110848017D01*
X96154815Y-110651983D01*
X96193060Y-110459715D01*
X96268079Y-110278603D01*
X96376990Y-110115607D01*
X96515607Y-109976990D01*
X96678603Y-109868079D01*
X96859715Y-109793060D01*
X97051983Y-109754815D01*
X97248017Y-109754815D01*
X97440285Y-109793060D01*
G37*
G36*
X103940285Y-109793060D02*
G01*
X104121397Y-109868079D01*
X104284393Y-109976990D01*
X104423010Y-110115607D01*
X104531921Y-110278603D01*
X104606940Y-110459715D01*
X104645185Y-110651983D01*
X104645185Y-110848017D01*
X104606940Y-111040285D01*
X104531921Y-111221397D01*
X104423010Y-111384393D01*
X104284393Y-111523010D01*
X104121397Y-111631921D01*
X103940285Y-111706940D01*
X103748017Y-111745185D01*
X103551983Y-111745185D01*
X103359715Y-111706940D01*
X103178603Y-111631921D01*
X103015607Y-111523010D01*
X102876990Y-111384393D01*
X102768079Y-111221397D01*
X102693060Y-111040285D01*
X102654815Y-110848017D01*
X102654815Y-110651983D01*
X102693060Y-110459715D01*
X102768079Y-110278603D01*
X102876990Y-110115607D01*
X103015607Y-109976990D01*
X103178603Y-109868079D01*
X103359715Y-109793060D01*
X103551983Y-109754815D01*
X103748017Y-109754815D01*
X103940285Y-109793060D01*
G37*
G36*
X147890000Y-106950000D02*
G01*
X146190000Y-106950000D01*
X146190000Y-105250000D01*
X147890000Y-105250000D01*
X147890000Y-106950000D01*
G37*
G36*
X142206742Y-105286601D02*
G01*
X142360687Y-105350367D01*
X142499234Y-105442941D01*
X142617059Y-105560766D01*
X142709633Y-105699313D01*
X142773399Y-105853258D01*
X142805907Y-106016685D01*
X142805907Y-106183315D01*
X142773399Y-106346742D01*
X142709633Y-106500687D01*
X142617059Y-106639234D01*
X142499234Y-106757059D01*
X142360687Y-106849633D01*
X142206742Y-106913399D01*
X142043315Y-106945907D01*
X141876685Y-106945907D01*
X141713258Y-106913399D01*
X141559313Y-106849633D01*
X141420766Y-106757059D01*
X141302941Y-106639234D01*
X141210367Y-106500687D01*
X141146601Y-106346742D01*
X141114093Y-106183315D01*
X141114093Y-106016685D01*
X141146601Y-105853258D01*
X141210367Y-105699313D01*
X141302941Y-105560766D01*
X141420766Y-105442941D01*
X141559313Y-105350367D01*
X141713258Y-105286601D01*
X141876685Y-105254093D01*
X142043315Y-105254093D01*
X142206742Y-105286601D01*
G37*
G36*
X144746742Y-105286601D02*
G01*
X144900687Y-105350367D01*
X145039234Y-105442941D01*
X145157059Y-105560766D01*
X145249633Y-105699313D01*
X145313399Y-105853258D01*
X145345907Y-106016685D01*
X145345907Y-106183315D01*
X145313399Y-106346742D01*
X145249633Y-106500687D01*
X145157059Y-106639234D01*
X145039234Y-106757059D01*
X144900687Y-106849633D01*
X144746742Y-106913399D01*
X144583315Y-106945907D01*
X144416685Y-106945907D01*
X144253258Y-106913399D01*
X144099313Y-106849633D01*
X143960766Y-106757059D01*
X143842941Y-106639234D01*
X143750367Y-106500687D01*
X143686601Y-106346742D01*
X143654093Y-106183315D01*
X143654093Y-106016685D01*
X143686601Y-105853258D01*
X143750367Y-105699313D01*
X143842941Y-105560766D01*
X143960766Y-105442941D01*
X144099313Y-105350367D01*
X144253258Y-105286601D01*
X144416685Y-105254093D01*
X144583315Y-105254093D01*
X144746742Y-105286601D01*
G37*
G36*
X57100000Y-97950000D02*
G01*
X55400000Y-97950000D01*
X55400000Y-96250000D01*
X57100000Y-96250000D01*
X57100000Y-97950000D01*
G37*
G36*
X48876742Y-96286601D02*
G01*
X49030687Y-96350367D01*
X49169234Y-96442941D01*
X49287059Y-96560766D01*
X49379633Y-96699313D01*
X49443399Y-96853258D01*
X49475907Y-97016685D01*
X49475907Y-97183315D01*
X49443399Y-97346742D01*
X49379633Y-97500687D01*
X49287059Y-97639234D01*
X49169234Y-97757059D01*
X49030687Y-97849633D01*
X48876742Y-97913399D01*
X48713315Y-97945907D01*
X48546685Y-97945907D01*
X48383258Y-97913399D01*
X48229313Y-97849633D01*
X48090766Y-97757059D01*
X47972941Y-97639234D01*
X47880367Y-97500687D01*
X47816601Y-97346742D01*
X47784093Y-97183315D01*
X47784093Y-97016685D01*
X47816601Y-96853258D01*
X47880367Y-96699313D01*
X47972941Y-96560766D01*
X48090766Y-96442941D01*
X48229313Y-96350367D01*
X48383258Y-96286601D01*
X48546685Y-96254093D01*
X48713315Y-96254093D01*
X48876742Y-96286601D01*
G37*
G36*
X51416742Y-96286601D02*
G01*
X51570687Y-96350367D01*
X51709234Y-96442941D01*
X51827059Y-96560766D01*
X51919633Y-96699313D01*
X51983399Y-96853258D01*
X52015907Y-97016685D01*
X52015907Y-97183315D01*
X51983399Y-97346742D01*
X51919633Y-97500687D01*
X51827059Y-97639234D01*
X51709234Y-97757059D01*
X51570687Y-97849633D01*
X51416742Y-97913399D01*
X51253315Y-97945907D01*
X51086685Y-97945907D01*
X50923258Y-97913399D01*
X50769313Y-97849633D01*
X50630766Y-97757059D01*
X50512941Y-97639234D01*
X50420367Y-97500687D01*
X50356601Y-97346742D01*
X50324093Y-97183315D01*
X50324093Y-97016685D01*
X50356601Y-96853258D01*
X50420367Y-96699313D01*
X50512941Y-96560766D01*
X50630766Y-96442941D01*
X50769313Y-96350367D01*
X50923258Y-96286601D01*
X51086685Y-96254093D01*
X51253315Y-96254093D01*
X51416742Y-96286601D01*
G37*
G36*
X53956742Y-96286601D02*
G01*
X54110687Y-96350367D01*
X54249234Y-96442941D01*
X54367059Y-96560766D01*
X54459633Y-96699313D01*
X54523399Y-96853258D01*
X54555907Y-97016685D01*
X54555907Y-97183315D01*
X54523399Y-97346742D01*
X54459633Y-97500687D01*
X54367059Y-97639234D01*
X54249234Y-97757059D01*
X54110687Y-97849633D01*
X53956742Y-97913399D01*
X53793315Y-97945907D01*
X53626685Y-97945907D01*
X53463258Y-97913399D01*
X53309313Y-97849633D01*
X53170766Y-97757059D01*
X53052941Y-97639234D01*
X52960367Y-97500687D01*
X52896601Y-97346742D01*
X52864093Y-97183315D01*
X52864093Y-97016685D01*
X52896601Y-96853258D01*
X52960367Y-96699313D01*
X53052941Y-96560766D01*
X53170766Y-96442941D01*
X53309313Y-96350367D01*
X53463258Y-96286601D01*
X53626685Y-96254093D01*
X53793315Y-96254093D01*
X53956742Y-96286601D01*
G37*
G36*
X95952000Y-64292000D02*
G01*
X94428000Y-64292000D01*
X94428000Y-62768000D01*
X95952000Y-62768000D01*
X95952000Y-64292000D01*
G37*
G36*
X97951197Y-62800811D02*
G01*
X98089204Y-62857976D01*
X98213408Y-62940966D01*
X98319034Y-63046592D01*
X98402024Y-63170796D01*
X98459189Y-63308803D01*
X98488331Y-63455311D01*
X98488331Y-63604689D01*
X98459189Y-63751197D01*
X98402024Y-63889204D01*
X98319034Y-64013408D01*
X98213408Y-64119034D01*
X98089204Y-64202024D01*
X97951197Y-64259189D01*
X97804689Y-64288331D01*
X97655311Y-64288331D01*
X97508803Y-64259189D01*
X97370796Y-64202024D01*
X97246592Y-64119034D01*
X97140966Y-64013408D01*
X97057976Y-63889204D01*
X97000811Y-63751197D01*
X96971669Y-63604689D01*
X96971669Y-63455311D01*
X97000811Y-63308803D01*
X97057976Y-63170796D01*
X97140966Y-63046592D01*
X97246592Y-62940966D01*
X97370796Y-62857976D01*
X97508803Y-62800811D01*
X97655311Y-62771669D01*
X97804689Y-62771669D01*
X97951197Y-62800811D01*
G37*
G36*
X100491197Y-62800811D02*
G01*
X100629204Y-62857976D01*
X100753408Y-62940966D01*
X100859034Y-63046592D01*
X100942024Y-63170796D01*
X100999189Y-63308803D01*
X101028331Y-63455311D01*
X101028331Y-63604689D01*
X100999189Y-63751197D01*
X100942024Y-63889204D01*
X100859034Y-64013408D01*
X100753408Y-64119034D01*
X100629204Y-64202024D01*
X100491197Y-64259189D01*
X100344689Y-64288331D01*
X100195311Y-64288331D01*
X100048803Y-64259189D01*
X99910796Y-64202024D01*
X99786592Y-64119034D01*
X99680966Y-64013408D01*
X99597976Y-63889204D01*
X99540811Y-63751197D01*
X99511669Y-63604689D01*
X99511669Y-63455311D01*
X99540811Y-63308803D01*
X99597976Y-63170796D01*
X99680966Y-63046592D01*
X99786592Y-62940966D01*
X99910796Y-62857976D01*
X100048803Y-62800811D01*
X100195311Y-62771669D01*
X100344689Y-62771669D01*
X100491197Y-62800811D01*
G37*
G36*
X103031197Y-62800811D02*
G01*
X103169204Y-62857976D01*
X103293408Y-62940966D01*
X103399034Y-63046592D01*
X103482024Y-63170796D01*
X103539189Y-63308803D01*
X103568331Y-63455311D01*
X103568331Y-63604689D01*
X103539189Y-63751197D01*
X103482024Y-63889204D01*
X103399034Y-64013408D01*
X103293408Y-64119034D01*
X103169204Y-64202024D01*
X103031197Y-64259189D01*
X102884689Y-64288331D01*
X102735311Y-64288331D01*
X102588803Y-64259189D01*
X102450796Y-64202024D01*
X102326592Y-64119034D01*
X102220966Y-64013408D01*
X102137976Y-63889204D01*
X102080811Y-63751197D01*
X102051669Y-63604689D01*
X102051669Y-63455311D01*
X102080811Y-63308803D01*
X102137976Y-63170796D01*
X102220966Y-63046592D01*
X102326592Y-62940966D01*
X102450796Y-62857976D01*
X102588803Y-62800811D01*
X102735311Y-62771669D01*
X102884689Y-62771669D01*
X103031197Y-62800811D01*
G37*
G36*
X140700000Y-54650000D02*
G01*
X139000000Y-54650000D01*
X139000000Y-52950000D01*
X140700000Y-52950000D01*
X140700000Y-54650000D01*
G37*
G36*
X142636742Y-52986601D02*
G01*
X142790687Y-53050367D01*
X142929234Y-53142941D01*
X143047059Y-53260766D01*
X143139633Y-53399313D01*
X143203399Y-53553258D01*
X143235907Y-53716685D01*
X143235907Y-53883315D01*
X143203399Y-54046742D01*
X143139633Y-54200687D01*
X143047059Y-54339234D01*
X142929234Y-54457059D01*
X142790687Y-54549633D01*
X142636742Y-54613399D01*
X142473315Y-54645907D01*
X142306685Y-54645907D01*
X142143258Y-54613399D01*
X141989313Y-54549633D01*
X141850766Y-54457059D01*
X141732941Y-54339234D01*
X141640367Y-54200687D01*
X141576601Y-54046742D01*
X141544093Y-53883315D01*
X141544093Y-53716685D01*
X141576601Y-53553258D01*
X141640367Y-53399313D01*
X141732941Y-53260766D01*
X141850766Y-53142941D01*
X141989313Y-53050367D01*
X142143258Y-52986601D01*
X142306685Y-52954093D01*
X142473315Y-52954093D01*
X142636742Y-52986601D01*
G37*
G36*
X145176742Y-52986601D02*
G01*
X145330687Y-53050367D01*
X145469234Y-53142941D01*
X145587059Y-53260766D01*
X145679633Y-53399313D01*
X145743399Y-53553258D01*
X145775907Y-53716685D01*
X145775907Y-53883315D01*
X145743399Y-54046742D01*
X145679633Y-54200687D01*
X145587059Y-54339234D01*
X145469234Y-54457059D01*
X145330687Y-54549633D01*
X145176742Y-54613399D01*
X145013315Y-54645907D01*
X144846685Y-54645907D01*
X144683258Y-54613399D01*
X144529313Y-54549633D01*
X144390766Y-54457059D01*
X144272941Y-54339234D01*
X144180367Y-54200687D01*
X144116601Y-54046742D01*
X144084093Y-53883315D01*
X144084093Y-53716685D01*
X144116601Y-53553258D01*
X144180367Y-53399313D01*
X144272941Y-53260766D01*
X144390766Y-53142941D01*
X144529313Y-53050367D01*
X144683258Y-52986601D01*
X144846685Y-52954093D01*
X145013315Y-52954093D01*
X145176742Y-52986601D01*
G37*
G36*
X147716742Y-52986601D02*
G01*
X147870687Y-53050367D01*
X148009234Y-53142941D01*
X148127059Y-53260766D01*
X148219633Y-53399313D01*
X148283399Y-53553258D01*
X148315907Y-53716685D01*
X148315907Y-53883315D01*
X148283399Y-54046742D01*
X148219633Y-54200687D01*
X148127059Y-54339234D01*
X148009234Y-54457059D01*
X147870687Y-54549633D01*
X147716742Y-54613399D01*
X147553315Y-54645907D01*
X147386685Y-54645907D01*
X147223258Y-54613399D01*
X147069313Y-54549633D01*
X146930766Y-54457059D01*
X146812941Y-54339234D01*
X146720367Y-54200687D01*
X146656601Y-54046742D01*
X146624093Y-53883315D01*
X146624093Y-53716685D01*
X146656601Y-53553258D01*
X146720367Y-53399313D01*
X146812941Y-53260766D01*
X146930766Y-53142941D01*
X147069313Y-53050367D01*
X147223258Y-52986601D01*
X147386685Y-52954093D01*
X147553315Y-52954093D01*
X147716742Y-52986601D01*
G37*
G36*
X74722228Y-52474448D02*
G01*
X74867117Y-52534463D01*
X74997515Y-52621592D01*
X75108408Y-52732485D01*
X75195537Y-52862883D01*
X75255552Y-53007772D01*
X75286148Y-53161586D01*
X75286148Y-53318414D01*
X75255552Y-53472228D01*
X75195537Y-53617117D01*
X75108408Y-53747515D01*
X74997515Y-53858408D01*
X74867117Y-53945537D01*
X74722228Y-54005552D01*
X74568414Y-54036148D01*
X74411586Y-54036148D01*
X74257772Y-54005552D01*
X74112883Y-53945537D01*
X73982485Y-53858408D01*
X73871592Y-53747515D01*
X73784463Y-53617117D01*
X73724448Y-53472228D01*
X73693852Y-53318414D01*
X73693852Y-53161586D01*
X73724448Y-53007772D01*
X73784463Y-52862883D01*
X73871592Y-52732485D01*
X73982485Y-52621592D01*
X74112883Y-52534463D01*
X74257772Y-52474448D01*
X74411586Y-52443852D01*
X74568414Y-52443852D01*
X74722228Y-52474448D01*
G37*
G36*
X77262228Y-52474448D02*
G01*
X77407117Y-52534463D01*
X77537515Y-52621592D01*
X77648408Y-52732485D01*
X77735537Y-52862883D01*
X77795552Y-53007772D01*
X77826148Y-53161586D01*
X77826148Y-53318414D01*
X77795552Y-53472228D01*
X77735537Y-53617117D01*
X77648408Y-53747515D01*
X77537515Y-53858408D01*
X77407117Y-53945537D01*
X77262228Y-54005552D01*
X77108414Y-54036148D01*
X76951586Y-54036148D01*
X76797772Y-54005552D01*
X76652883Y-53945537D01*
X76522485Y-53858408D01*
X76411592Y-53747515D01*
X76324463Y-53617117D01*
X76264448Y-53472228D01*
X76233852Y-53318414D01*
X76233852Y-53161586D01*
X76264448Y-53007772D01*
X76324463Y-52862883D01*
X76411592Y-52732485D01*
X76522485Y-52621592D01*
X76652883Y-52534463D01*
X76797772Y-52474448D01*
X76951586Y-52443852D01*
X77108414Y-52443852D01*
X77262228Y-52474448D01*
G37*
G36*
X79802228Y-52474448D02*
G01*
X79947117Y-52534463D01*
X80077515Y-52621592D01*
X80188408Y-52732485D01*
X80275537Y-52862883D01*
X80335552Y-53007772D01*
X80366148Y-53161586D01*
X80366148Y-53318414D01*
X80335552Y-53472228D01*
X80275537Y-53617117D01*
X80188408Y-53747515D01*
X80077515Y-53858408D01*
X79947117Y-53945537D01*
X79802228Y-54005552D01*
X79648414Y-54036148D01*
X79491586Y-54036148D01*
X79337772Y-54005552D01*
X79192883Y-53945537D01*
X79062485Y-53858408D01*
X78951592Y-53747515D01*
X78864463Y-53617117D01*
X78804448Y-53472228D01*
X78773852Y-53318414D01*
X78773852Y-53161586D01*
X78804448Y-53007772D01*
X78864463Y-52862883D01*
X78951592Y-52732485D01*
X79062485Y-52621592D01*
X79192883Y-52534463D01*
X79337772Y-52474448D01*
X79491586Y-52443852D01*
X79648414Y-52443852D01*
X79802228Y-52474448D01*
G37*
G36*
X82342228Y-52474448D02*
G01*
X82487117Y-52534463D01*
X82617515Y-52621592D01*
X82728408Y-52732485D01*
X82815537Y-52862883D01*
X82875552Y-53007772D01*
X82906148Y-53161586D01*
X82906148Y-53318414D01*
X82875552Y-53472228D01*
X82815537Y-53617117D01*
X82728408Y-53747515D01*
X82617515Y-53858408D01*
X82487117Y-53945537D01*
X82342228Y-54005552D01*
X82188414Y-54036148D01*
X82031586Y-54036148D01*
X81877772Y-54005552D01*
X81732883Y-53945537D01*
X81602485Y-53858408D01*
X81491592Y-53747515D01*
X81404463Y-53617117D01*
X81344448Y-53472228D01*
X81313852Y-53318414D01*
X81313852Y-53161586D01*
X81344448Y-53007772D01*
X81404463Y-52862883D01*
X81491592Y-52732485D01*
X81602485Y-52621592D01*
X81732883Y-52534463D01*
X81877772Y-52474448D01*
X82031586Y-52443852D01*
X82188414Y-52443852D01*
X82342228Y-52474448D01*
G37*
G36*
X84882228Y-52474448D02*
G01*
X85027117Y-52534463D01*
X85157515Y-52621592D01*
X85268408Y-52732485D01*
X85355537Y-52862883D01*
X85415552Y-53007772D01*
X85446148Y-53161586D01*
X85446148Y-53318414D01*
X85415552Y-53472228D01*
X85355537Y-53617117D01*
X85268408Y-53747515D01*
X85157515Y-53858408D01*
X85027117Y-53945537D01*
X84882228Y-54005552D01*
X84728414Y-54036148D01*
X84571586Y-54036148D01*
X84417772Y-54005552D01*
X84272883Y-53945537D01*
X84142485Y-53858408D01*
X84031592Y-53747515D01*
X83944463Y-53617117D01*
X83884448Y-53472228D01*
X83853852Y-53318414D01*
X83853852Y-53161586D01*
X83884448Y-53007772D01*
X83944463Y-52862883D01*
X84031592Y-52732485D01*
X84142485Y-52621592D01*
X84272883Y-52534463D01*
X84417772Y-52474448D01*
X84571586Y-52443852D01*
X84728414Y-52443852D01*
X84882228Y-52474448D01*
G37*
G36*
X87422228Y-52474448D02*
G01*
X87567117Y-52534463D01*
X87697515Y-52621592D01*
X87808408Y-52732485D01*
X87895537Y-52862883D01*
X87955552Y-53007772D01*
X87986148Y-53161586D01*
X87986148Y-53318414D01*
X87955552Y-53472228D01*
X87895537Y-53617117D01*
X87808408Y-53747515D01*
X87697515Y-53858408D01*
X87567117Y-53945537D01*
X87422228Y-54005552D01*
X87268414Y-54036148D01*
X87111586Y-54036148D01*
X86957772Y-54005552D01*
X86812883Y-53945537D01*
X86682485Y-53858408D01*
X86571592Y-53747515D01*
X86484463Y-53617117D01*
X86424448Y-53472228D01*
X86393852Y-53318414D01*
X86393852Y-53161586D01*
X86424448Y-53007772D01*
X86484463Y-52862883D01*
X86571592Y-52732485D01*
X86682485Y-52621592D01*
X86812883Y-52534463D01*
X86957772Y-52474448D01*
X87111586Y-52443852D01*
X87268414Y-52443852D01*
X87422228Y-52474448D01*
G37*
G36*
X89962228Y-52474448D02*
G01*
X90107117Y-52534463D01*
X90237515Y-52621592D01*
X90348408Y-52732485D01*
X90435537Y-52862883D01*
X90495552Y-53007772D01*
X90526148Y-53161586D01*
X90526148Y-53318414D01*
X90495552Y-53472228D01*
X90435537Y-53617117D01*
X90348408Y-53747515D01*
X90237515Y-53858408D01*
X90107117Y-53945537D01*
X89962228Y-54005552D01*
X89808414Y-54036148D01*
X89651586Y-54036148D01*
X89497772Y-54005552D01*
X89352883Y-53945537D01*
X89222485Y-53858408D01*
X89111592Y-53747515D01*
X89024463Y-53617117D01*
X88964448Y-53472228D01*
X88933852Y-53318414D01*
X88933852Y-53161586D01*
X88964448Y-53007772D01*
X89024463Y-52862883D01*
X89111592Y-52732485D01*
X89222485Y-52621592D01*
X89352883Y-52534463D01*
X89497772Y-52474448D01*
X89651586Y-52443852D01*
X89808414Y-52443852D01*
X89962228Y-52474448D01*
G37*
G36*
X92502228Y-52474448D02*
G01*
X92647117Y-52534463D01*
X92777515Y-52621592D01*
X92888408Y-52732485D01*
X92975537Y-52862883D01*
X93035552Y-53007772D01*
X93066148Y-53161586D01*
X93066148Y-53318414D01*
X93035552Y-53472228D01*
X92975537Y-53617117D01*
X92888408Y-53747515D01*
X92777515Y-53858408D01*
X92647117Y-53945537D01*
X92502228Y-54005552D01*
X92348414Y-54036148D01*
X92191586Y-54036148D01*
X92037772Y-54005552D01*
X91892883Y-53945537D01*
X91762485Y-53858408D01*
X91651592Y-53747515D01*
X91564463Y-53617117D01*
X91504448Y-53472228D01*
X91473852Y-53318414D01*
X91473852Y-53161586D01*
X91504448Y-53007772D01*
X91564463Y-52862883D01*
X91651592Y-52732485D01*
X91762485Y-52621592D01*
X91892883Y-52534463D01*
X92037772Y-52474448D01*
X92191586Y-52443852D01*
X92348414Y-52443852D01*
X92502228Y-52474448D01*
G37*
G36*
X95042228Y-52474448D02*
G01*
X95187117Y-52534463D01*
X95317515Y-52621592D01*
X95428408Y-52732485D01*
X95515537Y-52862883D01*
X95575552Y-53007772D01*
X95606148Y-53161586D01*
X95606148Y-53318414D01*
X95575552Y-53472228D01*
X95515537Y-53617117D01*
X95428408Y-53747515D01*
X95317515Y-53858408D01*
X95187117Y-53945537D01*
X95042228Y-54005552D01*
X94888414Y-54036148D01*
X94731586Y-54036148D01*
X94577772Y-54005552D01*
X94432883Y-53945537D01*
X94302485Y-53858408D01*
X94191592Y-53747515D01*
X94104463Y-53617117D01*
X94044448Y-53472228D01*
X94013852Y-53318414D01*
X94013852Y-53161586D01*
X94044448Y-53007772D01*
X94104463Y-52862883D01*
X94191592Y-52732485D01*
X94302485Y-52621592D01*
X94432883Y-52534463D01*
X94577772Y-52474448D01*
X94731586Y-52443852D01*
X94888414Y-52443852D01*
X95042228Y-52474448D01*
G37*
G36*
X97582228Y-52474448D02*
G01*
X97727117Y-52534463D01*
X97857515Y-52621592D01*
X97968408Y-52732485D01*
X98055537Y-52862883D01*
X98115552Y-53007772D01*
X98146148Y-53161586D01*
X98146148Y-53318414D01*
X98115552Y-53472228D01*
X98055537Y-53617117D01*
X97968408Y-53747515D01*
X97857515Y-53858408D01*
X97727117Y-53945537D01*
X97582228Y-54005552D01*
X97428414Y-54036148D01*
X97271586Y-54036148D01*
X97117772Y-54005552D01*
X96972883Y-53945537D01*
X96842485Y-53858408D01*
X96731592Y-53747515D01*
X96644463Y-53617117D01*
X96584448Y-53472228D01*
X96553852Y-53318414D01*
X96553852Y-53161586D01*
X96584448Y-53007772D01*
X96644463Y-52862883D01*
X96731592Y-52732485D01*
X96842485Y-52621592D01*
X96972883Y-52534463D01*
X97117772Y-52474448D01*
X97271586Y-52443852D01*
X97428414Y-52443852D01*
X97582228Y-52474448D01*
G37*
G36*
X100122228Y-52474448D02*
G01*
X100267117Y-52534463D01*
X100397515Y-52621592D01*
X100508408Y-52732485D01*
X100595537Y-52862883D01*
X100655552Y-53007772D01*
X100686148Y-53161586D01*
X100686148Y-53318414D01*
X100655552Y-53472228D01*
X100595537Y-53617117D01*
X100508408Y-53747515D01*
X100397515Y-53858408D01*
X100267117Y-53945537D01*
X100122228Y-54005552D01*
X99968414Y-54036148D01*
X99811586Y-54036148D01*
X99657772Y-54005552D01*
X99512883Y-53945537D01*
X99382485Y-53858408D01*
X99271592Y-53747515D01*
X99184463Y-53617117D01*
X99124448Y-53472228D01*
X99093852Y-53318414D01*
X99093852Y-53161586D01*
X99124448Y-53007772D01*
X99184463Y-52862883D01*
X99271592Y-52732485D01*
X99382485Y-52621592D01*
X99512883Y-52534463D01*
X99657772Y-52474448D01*
X99811586Y-52443852D01*
X99968414Y-52443852D01*
X100122228Y-52474448D01*
G37*
G36*
X102662228Y-52474448D02*
G01*
X102807117Y-52534463D01*
X102937515Y-52621592D01*
X103048408Y-52732485D01*
X103135537Y-52862883D01*
X103195552Y-53007772D01*
X103226148Y-53161586D01*
X103226148Y-53318414D01*
X103195552Y-53472228D01*
X103135537Y-53617117D01*
X103048408Y-53747515D01*
X102937515Y-53858408D01*
X102807117Y-53945537D01*
X102662228Y-54005552D01*
X102508414Y-54036148D01*
X102351586Y-54036148D01*
X102197772Y-54005552D01*
X102052883Y-53945537D01*
X101922485Y-53858408D01*
X101811592Y-53747515D01*
X101724463Y-53617117D01*
X101664448Y-53472228D01*
X101633852Y-53318414D01*
X101633852Y-53161586D01*
X101664448Y-53007772D01*
X101724463Y-52862883D01*
X101811592Y-52732485D01*
X101922485Y-52621592D01*
X102052883Y-52534463D01*
X102197772Y-52474448D01*
X102351586Y-52443852D01*
X102508414Y-52443852D01*
X102662228Y-52474448D01*
G37*
G36*
X105202228Y-52474448D02*
G01*
X105347117Y-52534463D01*
X105477515Y-52621592D01*
X105588408Y-52732485D01*
X105675537Y-52862883D01*
X105735552Y-53007772D01*
X105766148Y-53161586D01*
X105766148Y-53318414D01*
X105735552Y-53472228D01*
X105675537Y-53617117D01*
X105588408Y-53747515D01*
X105477515Y-53858408D01*
X105347117Y-53945537D01*
X105202228Y-54005552D01*
X105048414Y-54036148D01*
X104891586Y-54036148D01*
X104737772Y-54005552D01*
X104592883Y-53945537D01*
X104462485Y-53858408D01*
X104351592Y-53747515D01*
X104264463Y-53617117D01*
X104204448Y-53472228D01*
X104173852Y-53318414D01*
X104173852Y-53161586D01*
X104204448Y-53007772D01*
X104264463Y-52862883D01*
X104351592Y-52732485D01*
X104462485Y-52621592D01*
X104592883Y-52534463D01*
X104737772Y-52474448D01*
X104891586Y-52443852D01*
X105048414Y-52443852D01*
X105202228Y-52474448D01*
G37*
G36*
X107742228Y-52474448D02*
G01*
X107887117Y-52534463D01*
X108017515Y-52621592D01*
X108128408Y-52732485D01*
X108215537Y-52862883D01*
X108275552Y-53007772D01*
X108306148Y-53161586D01*
X108306148Y-53318414D01*
X108275552Y-53472228D01*
X108215537Y-53617117D01*
X108128408Y-53747515D01*
X108017515Y-53858408D01*
X107887117Y-53945537D01*
X107742228Y-54005552D01*
X107588414Y-54036148D01*
X107431586Y-54036148D01*
X107277772Y-54005552D01*
X107132883Y-53945537D01*
X107002485Y-53858408D01*
X106891592Y-53747515D01*
X106804463Y-53617117D01*
X106744448Y-53472228D01*
X106713852Y-53318414D01*
X106713852Y-53161586D01*
X106744448Y-53007772D01*
X106804463Y-52862883D01*
X106891592Y-52732485D01*
X107002485Y-52621592D01*
X107132883Y-52534463D01*
X107277772Y-52474448D01*
X107431586Y-52443852D01*
X107588414Y-52443852D01*
X107742228Y-52474448D01*
G37*
G36*
X110282228Y-52474448D02*
G01*
X110427117Y-52534463D01*
X110557515Y-52621592D01*
X110668408Y-52732485D01*
X110755537Y-52862883D01*
X110815552Y-53007772D01*
X110846148Y-53161586D01*
X110846148Y-53318414D01*
X110815552Y-53472228D01*
X110755537Y-53617117D01*
X110668408Y-53747515D01*
X110557515Y-53858408D01*
X110427117Y-53945537D01*
X110282228Y-54005552D01*
X110128414Y-54036148D01*
X109971586Y-54036148D01*
X109817772Y-54005552D01*
X109672883Y-53945537D01*
X109542485Y-53858408D01*
X109431592Y-53747515D01*
X109344463Y-53617117D01*
X109284448Y-53472228D01*
X109253852Y-53318414D01*
X109253852Y-53161586D01*
X109284448Y-53007772D01*
X109344463Y-52862883D01*
X109431592Y-52732485D01*
X109542485Y-52621592D01*
X109672883Y-52534463D01*
X109817772Y-52474448D01*
X109971586Y-52443852D01*
X110128414Y-52443852D01*
X110282228Y-52474448D01*
G37*
G36*
X47673513Y-38244208D02*
G01*
X47912293Y-38321793D01*
X48135998Y-38435776D01*
X48339117Y-38583350D01*
X48516650Y-38760883D01*
X48664224Y-38964002D01*
X48778207Y-39187707D01*
X48855792Y-39426487D01*
X48895068Y-39674465D01*
X48895068Y-39925535D01*
X48855792Y-40173513D01*
X48778207Y-40412293D01*
X48664224Y-40635998D01*
X48516650Y-40839117D01*
X48339117Y-41016650D01*
X48135998Y-41164224D01*
X47912293Y-41278207D01*
X47673513Y-41355792D01*
X47425535Y-41395068D01*
X47174465Y-41395068D01*
X46926487Y-41355792D01*
X46687707Y-41278207D01*
X46464002Y-41164224D01*
X46260883Y-41016650D01*
X46083350Y-40839117D01*
X45935776Y-40635998D01*
X45821793Y-40412293D01*
X45744208Y-40173513D01*
X45704932Y-39925535D01*
X45704932Y-39674465D01*
X45744208Y-39426487D01*
X45821793Y-39187707D01*
X45935776Y-38964002D01*
X46083350Y-38760883D01*
X46260883Y-38583350D01*
X46464002Y-38435776D01*
X46687707Y-38321793D01*
X46926487Y-38244208D01*
X47174465Y-38204932D01*
X47425535Y-38204932D01*
X47673513Y-38244208D01*
G37*
G36*
X151873513Y-37344208D02*
G01*
X152112293Y-37421793D01*
X152335998Y-37535776D01*
X152539117Y-37683350D01*
X152716650Y-37860883D01*
X152864224Y-38064002D01*
X152978207Y-38287707D01*
X153055792Y-38526487D01*
X153095068Y-38774465D01*
X153095068Y-39025535D01*
X153055792Y-39273513D01*
X152978207Y-39512293D01*
X152864224Y-39735998D01*
X152716650Y-39939117D01*
X152539117Y-40116650D01*
X152335998Y-40264224D01*
X152112293Y-40378207D01*
X151873513Y-40455792D01*
X151625535Y-40495068D01*
X151374465Y-40495068D01*
X151126487Y-40455792D01*
X150887707Y-40378207D01*
X150664002Y-40264224D01*
X150460883Y-40116650D01*
X150283350Y-39939117D01*
X150135776Y-39735998D01*
X150021793Y-39512293D01*
X149944208Y-39273513D01*
X149904932Y-39025535D01*
X149904932Y-38774465D01*
X149944208Y-38526487D01*
X150021793Y-38287707D01*
X150135776Y-38064002D01*
X150283350Y-37860883D01*
X150460883Y-37683350D01*
X150664002Y-37535776D01*
X150887707Y-37421793D01*
X151126487Y-37344208D01*
X151374465Y-37304932D01*
X151625535Y-37304932D01*
X151873513Y-37344208D01*
G37*
G36*
X110850000Y-38800000D02*
G01*
X109250000Y-38800000D01*
X109250000Y-37200000D01*
X110850000Y-37200000D01*
X110850000Y-38800000D01*
G37*
G36*
X74722228Y-37234448D02*
G01*
X74867117Y-37294463D01*
X74997515Y-37381592D01*
X75108408Y-37492485D01*
X75195537Y-37622883D01*
X75255552Y-37767772D01*
X75286148Y-37921586D01*
X75286148Y-38078414D01*
X75255552Y-38232228D01*
X75195537Y-38377117D01*
X75108408Y-38507515D01*
X74997515Y-38618408D01*
X74867117Y-38705537D01*
X74722228Y-38765552D01*
X74568414Y-38796148D01*
X74411586Y-38796148D01*
X74257772Y-38765552D01*
X74112883Y-38705537D01*
X73982485Y-38618408D01*
X73871592Y-38507515D01*
X73784463Y-38377117D01*
X73724448Y-38232228D01*
X73693852Y-38078414D01*
X73693852Y-37921586D01*
X73724448Y-37767772D01*
X73784463Y-37622883D01*
X73871592Y-37492485D01*
X73982485Y-37381592D01*
X74112883Y-37294463D01*
X74257772Y-37234448D01*
X74411586Y-37203852D01*
X74568414Y-37203852D01*
X74722228Y-37234448D01*
G37*
G36*
X77262228Y-37234448D02*
G01*
X77407117Y-37294463D01*
X77537515Y-37381592D01*
X77648408Y-37492485D01*
X77735537Y-37622883D01*
X77795552Y-37767772D01*
X77826148Y-37921586D01*
X77826148Y-38078414D01*
X77795552Y-38232228D01*
X77735537Y-38377117D01*
X77648408Y-38507515D01*
X77537515Y-38618408D01*
X77407117Y-38705537D01*
X77262228Y-38765552D01*
X77108414Y-38796148D01*
X76951586Y-38796148D01*
X76797772Y-38765552D01*
X76652883Y-38705537D01*
X76522485Y-38618408D01*
X76411592Y-38507515D01*
X76324463Y-38377117D01*
X76264448Y-38232228D01*
X76233852Y-38078414D01*
X76233852Y-37921586D01*
X76264448Y-37767772D01*
X76324463Y-37622883D01*
X76411592Y-37492485D01*
X76522485Y-37381592D01*
X76652883Y-37294463D01*
X76797772Y-37234448D01*
X76951586Y-37203852D01*
X77108414Y-37203852D01*
X77262228Y-37234448D01*
G37*
G36*
X79802228Y-37234448D02*
G01*
X79947117Y-37294463D01*
X80077515Y-37381592D01*
X80188408Y-37492485D01*
X80275537Y-37622883D01*
X80335552Y-37767772D01*
X80366148Y-37921586D01*
X80366148Y-38078414D01*
X80335552Y-38232228D01*
X80275537Y-38377117D01*
X80188408Y-38507515D01*
X80077515Y-38618408D01*
X79947117Y-38705537D01*
X79802228Y-38765552D01*
X79648414Y-38796148D01*
X79491586Y-38796148D01*
X79337772Y-38765552D01*
X79192883Y-38705537D01*
X79062485Y-38618408D01*
X78951592Y-38507515D01*
X78864463Y-38377117D01*
X78804448Y-38232228D01*
X78773852Y-38078414D01*
X78773852Y-37921586D01*
X78804448Y-37767772D01*
X78864463Y-37622883D01*
X78951592Y-37492485D01*
X79062485Y-37381592D01*
X79192883Y-37294463D01*
X79337772Y-37234448D01*
X79491586Y-37203852D01*
X79648414Y-37203852D01*
X79802228Y-37234448D01*
G37*
G36*
X82342228Y-37234448D02*
G01*
X82487117Y-37294463D01*
X82617515Y-37381592D01*
X82728408Y-37492485D01*
X82815537Y-37622883D01*
X82875552Y-37767772D01*
X82906148Y-37921586D01*
X82906148Y-38078414D01*
X82875552Y-38232228D01*
X82815537Y-38377117D01*
X82728408Y-38507515D01*
X82617515Y-38618408D01*
X82487117Y-38705537D01*
X82342228Y-38765552D01*
X82188414Y-38796148D01*
X82031586Y-38796148D01*
X81877772Y-38765552D01*
X81732883Y-38705537D01*
X81602485Y-38618408D01*
X81491592Y-38507515D01*
X81404463Y-38377117D01*
X81344448Y-38232228D01*
X81313852Y-38078414D01*
X81313852Y-37921586D01*
X81344448Y-37767772D01*
X81404463Y-37622883D01*
X81491592Y-37492485D01*
X81602485Y-37381592D01*
X81732883Y-37294463D01*
X81877772Y-37234448D01*
X82031586Y-37203852D01*
X82188414Y-37203852D01*
X82342228Y-37234448D01*
G37*
G36*
X84882228Y-37234448D02*
G01*
X85027117Y-37294463D01*
X85157515Y-37381592D01*
X85268408Y-37492485D01*
X85355537Y-37622883D01*
X85415552Y-37767772D01*
X85446148Y-37921586D01*
X85446148Y-38078414D01*
X85415552Y-38232228D01*
X85355537Y-38377117D01*
X85268408Y-38507515D01*
X85157515Y-38618408D01*
X85027117Y-38705537D01*
X84882228Y-38765552D01*
X84728414Y-38796148D01*
X84571586Y-38796148D01*
X84417772Y-38765552D01*
X84272883Y-38705537D01*
X84142485Y-38618408D01*
X84031592Y-38507515D01*
X83944463Y-38377117D01*
X83884448Y-38232228D01*
X83853852Y-38078414D01*
X83853852Y-37921586D01*
X83884448Y-37767772D01*
X83944463Y-37622883D01*
X84031592Y-37492485D01*
X84142485Y-37381592D01*
X84272883Y-37294463D01*
X84417772Y-37234448D01*
X84571586Y-37203852D01*
X84728414Y-37203852D01*
X84882228Y-37234448D01*
G37*
G36*
X87422228Y-37234448D02*
G01*
X87567117Y-37294463D01*
X87697515Y-37381592D01*
X87808408Y-37492485D01*
X87895537Y-37622883D01*
X87955552Y-37767772D01*
X87986148Y-37921586D01*
X87986148Y-38078414D01*
X87955552Y-38232228D01*
X87895537Y-38377117D01*
X87808408Y-38507515D01*
X87697515Y-38618408D01*
X87567117Y-38705537D01*
X87422228Y-38765552D01*
X87268414Y-38796148D01*
X87111586Y-38796148D01*
X86957772Y-38765552D01*
X86812883Y-38705537D01*
X86682485Y-38618408D01*
X86571592Y-38507515D01*
X86484463Y-38377117D01*
X86424448Y-38232228D01*
X86393852Y-38078414D01*
X86393852Y-37921586D01*
X86424448Y-37767772D01*
X86484463Y-37622883D01*
X86571592Y-37492485D01*
X86682485Y-37381592D01*
X86812883Y-37294463D01*
X86957772Y-37234448D01*
X87111586Y-37203852D01*
X87268414Y-37203852D01*
X87422228Y-37234448D01*
G37*
G36*
X89962228Y-37234448D02*
G01*
X90107117Y-37294463D01*
X90237515Y-37381592D01*
X90348408Y-37492485D01*
X90435537Y-37622883D01*
X90495552Y-37767772D01*
X90526148Y-37921586D01*
X90526148Y-38078414D01*
X90495552Y-38232228D01*
X90435537Y-38377117D01*
X90348408Y-38507515D01*
X90237515Y-38618408D01*
X90107117Y-38705537D01*
X89962228Y-38765552D01*
X89808414Y-38796148D01*
X89651586Y-38796148D01*
X89497772Y-38765552D01*
X89352883Y-38705537D01*
X89222485Y-38618408D01*
X89111592Y-38507515D01*
X89024463Y-38377117D01*
X88964448Y-38232228D01*
X88933852Y-38078414D01*
X88933852Y-37921586D01*
X88964448Y-37767772D01*
X89024463Y-37622883D01*
X89111592Y-37492485D01*
X89222485Y-37381592D01*
X89352883Y-37294463D01*
X89497772Y-37234448D01*
X89651586Y-37203852D01*
X89808414Y-37203852D01*
X89962228Y-37234448D01*
G37*
G36*
X92502228Y-37234448D02*
G01*
X92647117Y-37294463D01*
X92777515Y-37381592D01*
X92888408Y-37492485D01*
X92975537Y-37622883D01*
X93035552Y-37767772D01*
X93066148Y-37921586D01*
X93066148Y-38078414D01*
X93035552Y-38232228D01*
X92975537Y-38377117D01*
X92888408Y-38507515D01*
X92777515Y-38618408D01*
X92647117Y-38705537D01*
X92502228Y-38765552D01*
X92348414Y-38796148D01*
X92191586Y-38796148D01*
X92037772Y-38765552D01*
X91892883Y-38705537D01*
X91762485Y-38618408D01*
X91651592Y-38507515D01*
X91564463Y-38377117D01*
X91504448Y-38232228D01*
X91473852Y-38078414D01*
X91473852Y-37921586D01*
X91504448Y-37767772D01*
X91564463Y-37622883D01*
X91651592Y-37492485D01*
X91762485Y-37381592D01*
X91892883Y-37294463D01*
X92037772Y-37234448D01*
X92191586Y-37203852D01*
X92348414Y-37203852D01*
X92502228Y-37234448D01*
G37*
G36*
X95042228Y-37234448D02*
G01*
X95187117Y-37294463D01*
X95317515Y-37381592D01*
X95428408Y-37492485D01*
X95515537Y-37622883D01*
X95575552Y-37767772D01*
X95606148Y-37921586D01*
X95606148Y-38078414D01*
X95575552Y-38232228D01*
X95515537Y-38377117D01*
X95428408Y-38507515D01*
X95317515Y-38618408D01*
X95187117Y-38705537D01*
X95042228Y-38765552D01*
X94888414Y-38796148D01*
X94731586Y-38796148D01*
X94577772Y-38765552D01*
X94432883Y-38705537D01*
X94302485Y-38618408D01*
X94191592Y-38507515D01*
X94104463Y-38377117D01*
X94044448Y-38232228D01*
X94013852Y-38078414D01*
X94013852Y-37921586D01*
X94044448Y-37767772D01*
X94104463Y-37622883D01*
X94191592Y-37492485D01*
X94302485Y-37381592D01*
X94432883Y-37294463D01*
X94577772Y-37234448D01*
X94731586Y-37203852D01*
X94888414Y-37203852D01*
X95042228Y-37234448D01*
G37*
G36*
X97582228Y-37234448D02*
G01*
X97727117Y-37294463D01*
X97857515Y-37381592D01*
X97968408Y-37492485D01*
X98055537Y-37622883D01*
X98115552Y-37767772D01*
X98146148Y-37921586D01*
X98146148Y-38078414D01*
X98115552Y-38232228D01*
X98055537Y-38377117D01*
X97968408Y-38507515D01*
X97857515Y-38618408D01*
X97727117Y-38705537D01*
X97582228Y-38765552D01*
X97428414Y-38796148D01*
X97271586Y-38796148D01*
X97117772Y-38765552D01*
X96972883Y-38705537D01*
X96842485Y-38618408D01*
X96731592Y-38507515D01*
X96644463Y-38377117D01*
X96584448Y-38232228D01*
X96553852Y-38078414D01*
X96553852Y-37921586D01*
X96584448Y-37767772D01*
X96644463Y-37622883D01*
X96731592Y-37492485D01*
X96842485Y-37381592D01*
X96972883Y-37294463D01*
X97117772Y-37234448D01*
X97271586Y-37203852D01*
X97428414Y-37203852D01*
X97582228Y-37234448D01*
G37*
G36*
X100122228Y-37234448D02*
G01*
X100267117Y-37294463D01*
X100397515Y-37381592D01*
X100508408Y-37492485D01*
X100595537Y-37622883D01*
X100655552Y-37767772D01*
X100686148Y-37921586D01*
X100686148Y-38078414D01*
X100655552Y-38232228D01*
X100595537Y-38377117D01*
X100508408Y-38507515D01*
X100397515Y-38618408D01*
X100267117Y-38705537D01*
X100122228Y-38765552D01*
X99968414Y-38796148D01*
X99811586Y-38796148D01*
X99657772Y-38765552D01*
X99512883Y-38705537D01*
X99382485Y-38618408D01*
X99271592Y-38507515D01*
X99184463Y-38377117D01*
X99124448Y-38232228D01*
X99093852Y-38078414D01*
X99093852Y-37921586D01*
X99124448Y-37767772D01*
X99184463Y-37622883D01*
X99271592Y-37492485D01*
X99382485Y-37381592D01*
X99512883Y-37294463D01*
X99657772Y-37234448D01*
X99811586Y-37203852D01*
X99968414Y-37203852D01*
X100122228Y-37234448D01*
G37*
G36*
X102662228Y-37234448D02*
G01*
X102807117Y-37294463D01*
X102937515Y-37381592D01*
X103048408Y-37492485D01*
X103135537Y-37622883D01*
X103195552Y-37767772D01*
X103226148Y-37921586D01*
X103226148Y-38078414D01*
X103195552Y-38232228D01*
X103135537Y-38377117D01*
X103048408Y-38507515D01*
X102937515Y-38618408D01*
X102807117Y-38705537D01*
X102662228Y-38765552D01*
X102508414Y-38796148D01*
X102351586Y-38796148D01*
X102197772Y-38765552D01*
X102052883Y-38705537D01*
X101922485Y-38618408D01*
X101811592Y-38507515D01*
X101724463Y-38377117D01*
X101664448Y-38232228D01*
X101633852Y-38078414D01*
X101633852Y-37921586D01*
X101664448Y-37767772D01*
X101724463Y-37622883D01*
X101811592Y-37492485D01*
X101922485Y-37381592D01*
X102052883Y-37294463D01*
X102197772Y-37234448D01*
X102351586Y-37203852D01*
X102508414Y-37203852D01*
X102662228Y-37234448D01*
G37*
G36*
X105202228Y-37234448D02*
G01*
X105347117Y-37294463D01*
X105477515Y-37381592D01*
X105588408Y-37492485D01*
X105675537Y-37622883D01*
X105735552Y-37767772D01*
X105766148Y-37921586D01*
X105766148Y-38078414D01*
X105735552Y-38232228D01*
X105675537Y-38377117D01*
X105588408Y-38507515D01*
X105477515Y-38618408D01*
X105347117Y-38705537D01*
X105202228Y-38765552D01*
X105048414Y-38796148D01*
X104891586Y-38796148D01*
X104737772Y-38765552D01*
X104592883Y-38705537D01*
X104462485Y-38618408D01*
X104351592Y-38507515D01*
X104264463Y-38377117D01*
X104204448Y-38232228D01*
X104173852Y-38078414D01*
X104173852Y-37921586D01*
X104204448Y-37767772D01*
X104264463Y-37622883D01*
X104351592Y-37492485D01*
X104462485Y-37381592D01*
X104592883Y-37294463D01*
X104737772Y-37234448D01*
X104891586Y-37203852D01*
X105048414Y-37203852D01*
X105202228Y-37234448D01*
G37*
G36*
X107742228Y-37234448D02*
G01*
X107887117Y-37294463D01*
X108017515Y-37381592D01*
X108128408Y-37492485D01*
X108215537Y-37622883D01*
X108275552Y-37767772D01*
X108306148Y-37921586D01*
X108306148Y-38078414D01*
X108275552Y-38232228D01*
X108215537Y-38377117D01*
X108128408Y-38507515D01*
X108017515Y-38618408D01*
X107887117Y-38705537D01*
X107742228Y-38765552D01*
X107588414Y-38796148D01*
X107431586Y-38796148D01*
X107277772Y-38765552D01*
X107132883Y-38705537D01*
X107002485Y-38618408D01*
X106891592Y-38507515D01*
X106804463Y-38377117D01*
X106744448Y-38232228D01*
X106713852Y-38078414D01*
X106713852Y-37921586D01*
X106744448Y-37767772D01*
X106804463Y-37622883D01*
X106891592Y-37492485D01*
X107002485Y-37381592D01*
X107132883Y-37294463D01*
X107277772Y-37234448D01*
X107431586Y-37203852D01*
X107588414Y-37203852D01*
X107742228Y-37234448D01*
G37*
%LPD*%
M02*
